<svg width="27" height="50" viewBox="0 0 27 50" fill="none" xmlns="http://www.w3.org/2000/svg">
<rect x="2" y="5" width="22" height="43" fill="white"/>
<rect x="2" y="5" width="22" height="43" fill="white"/>
<mask id="mask0" mask-type="alpha" maskUnits="userSpaceOnUse" x="0" y="0" width="27" height="50">
<path fill-rule="evenodd" clip-rule="evenodd" d="M21.9551 2.88463H18.0891V0H7.99357V2.88463H4.32667C1.94053 2.88463 0 4.82569 0 7.21162V45.6732C0 48.0586 1.94106 50 4.32667 50H21.9551C24.342 50 26.2821 48.0586 26.2821 45.6732V7.21151C26.2821 4.82569 24.342 2.88463 21.9551 2.88463ZM23.398 45.6735C23.398 46.4684 22.7507 47.1155 21.9551 47.1155H4.32667C3.53105 47.1155 2.88388 46.4696 2.88388 45.6735V7.21151C2.88388 6.41663 3.53105 5.76915 4.32667 5.76915H21.9551C22.7507 5.76915 23.398 6.41652 23.398 7.21151V45.6735ZM21.8251 45.4084H4.45691V39.0799H21.8246L21.8251 45.4084Z" fill="black"/>
<path d="M21.8251 37.5211H4.45691V31.193H21.8246L21.8251 37.5211Z" fill="black"/>
<path d="M21.8251 29.6336H4.45691V23.3051H21.8246L21.8251 29.6336Z" fill="black"/>
<path d="M21.8251 21.764H4.45691V15.4356H21.8246L21.8251 21.764Z" fill="black"/>
<path d="M21.8251 13.8763H4.45691V7.54754H21.8246L21.8251 13.8763Z" fill="black"/>
</mask>
<g mask="url(#mask0)">
<rect x="-2" y="-6" width="30" height="58" fill="#B2B2B2"/>
<rect x="4" y="15" width="18" height="31" fill="#B8F23D"/>
<rect x="4" y="7" width="18" height="7" fill="white"/>
<rect x="4" y="7" width="18" height="7" fill="white"/>
</g>
</svg>
