<svg width="150" height="150" viewBox="0 0 150 150" fill="none" xmlns="http://www.w3.org/2000/svg">
<mask id="mask0" mask-type="alpha" maskUnits="userSpaceOnUse" x="0" y="0" width="150" height="150">
<rect width="150" height="150" fill="#C4C4C4"/>
</mask>
<g mask="url(#mask0)">
<path d="M142.782 0H8.57141L20.4135 134.211L75.6767 150L130.94 134.211L142.782 0Z" fill="#0277BD"/>
<path d="M75.6766 11.8421V137.763L119.887 125.132L129.756 11.8421H75.6766Z" fill="#039BE5"/>
<path d="M111.598 31.579H75.6766V47.3685H95.0187L93.8345 63.1579H75.6766V78.9474H93.0451L91.8608 96.7106L75.6766 102.237V118.816L106.861 108.553L109.624 63.1579L111.598 31.579Z" fill="white"/>
<path d="M75.6765 31.579V47.3685H40.5449L39.3607 31.579H75.6765ZM57.5186 63.1579L58.3081 78.9474H75.6765V63.1579H57.5186ZM59.0976 86.8421H43.3081L44.4923 108.553L75.6765 118.816V102.237L59.4923 96.7106L59.0976 86.8421Z" fill="#EEEEEE"/>
</g>
</svg>
