<svg width="150" height="150" viewBox="0 0 150 150" fill="none" xmlns="http://www.w3.org/2000/svg">
<path fill-rule="evenodd" clip-rule="evenodd" d="M25 50V89.5188C20.7969 90.3125 18.5906 90.625 15.2437 90.625C5.21875 90.6156 0 86.1406 0 77.55C0 69.2719 5.53437 63.9 14.1125 63.9C15.4437 63.9 16.4562 64.0031 17.6844 64.3188V50H25ZM17.6844 70.85C16.7219 70.5375 15.9312 70.4313 14.9156 70.4313C10.7656 70.4313 8.36563 72.9594 8.36563 77.3938C8.36563 81.7094 10.6594 84.0906 14.8625 84.0906C15.7719 84.0906 16.5094 84.0406 17.6844 83.8813V70.85Z" fill="#004D40"/>
<path fill-rule="evenodd" clip-rule="evenodd" d="M37.4998 62.6438V83.325C37.4998 89.8125 37.0154 93.4 35.5873 96.0875C34.256 98.6719 32.5029 100.303 28.881 102.103L21.2654 98.5125C24.8873 96.8281 26.6435 95.3406 27.7623 93.0688C28.9341 90.7469 29.306 87.5875 29.306 80.5156V62.6375H37.4998V62.6438Z" fill="#004D40"/>
<path d="M37.4999 50H29.303V58.4781H37.4999V50Z" fill="#004D40"/>
<path fill-rule="evenodd" clip-rule="evenodd" d="M42.9189 65.2375C46.4689 63.5125 49.8658 62.7531 53.5689 62.7531C57.6971 62.7531 60.4096 63.8875 61.6096 66.1062C62.2814 67.3469 62.5002 68.9625 62.5002 72.4219V89.3187C58.9002 89.8531 54.3564 90.2375 51.0221 90.2375C44.2846 90.2375 41.2627 87.8062 41.2627 82.4094C41.2627 76.5719 45.2783 73.875 55.1408 73.0156V71.1875C55.1408 69.6781 54.4064 69.1312 52.3783 69.1312C49.4096 69.1312 46.0658 70 42.9283 71.6687L42.9189 65.2375ZM55.5033 78.4594C50.1846 78.9937 48.4564 79.8625 48.4564 82.025C48.4564 83.6437 49.4502 84.4031 51.6439 84.4031C52.8439 84.4031 53.9408 84.2969 55.5033 84.0281V78.4594Z" fill="#004D40"/>
<path fill-rule="evenodd" clip-rule="evenodd" d="M66.9312 64.6656C71.6812 63.35 75.5937 62.75 79.5593 62.75C83.678 62.75 86.6624 63.7406 88.4312 65.6563C90.0937 67.4625 90.6249 69.4437 90.6249 73.6656V90.2375H82.5812V74.0031C82.5812 70.7594 81.5343 69.5531 78.6687 69.5531C77.5718 69.5531 76.578 69.6625 74.9624 70.1625V90.2406H66.9312V64.6656Z" fill="#004D40"/>
<path fill-rule="evenodd" clip-rule="evenodd" d="M94.3031 93.7688C97.175 95.2875 100.05 95.9875 103.091 95.9875C108.469 95.9875 110.759 94.5094 110.759 89.1875V89.025C109.166 89.8313 107.556 90.1688 105.434 90.1688C98.2406 90.1688 93.75 85.3344 93.75 77.6781C93.75 68.1688 100.441 62.7969 112.419 62.7969C115.937 62.7969 119.191 63.175 123.128 63.9938L120.319 70.025C118.134 69.5938 120.141 69.9594 118.494 69.8V70.6719L118.6 74.2031L118.653 78.7688C118.706 79.9125 118.706 81.05 118.759 82.1938V84.475C118.759 91.6469 118.166 94.2594 116.412 97.0375C113.856 101.106 109.431 103.122 103.144 103.122C99.9437 103.122 97.175 102.638 94.3031 101.494V93.7688ZM110.6 69.5344H110.334H109.741C108.147 69.4813 106.278 69.9125 104.997 70.7313C103.034 71.8719 102.019 73.9406 102.019 76.8688C102.019 81.0469 104.047 83.4375 107.669 83.4375C108.787 83.4375 109.697 83.2219 110.753 82.9V82.2969V80.0156C110.753 79.0344 110.7 77.9469 110.7 76.8062L110.647 72.95L110.594 70.1813V69.5344H110.6Z" fill="#004D40"/>
<path fill-rule="evenodd" clip-rule="evenodd" d="M136.144 62.6438C144.747 62.6438 150 67.8313 150 76.2313C150 84.8438 144.525 90.2406 135.8 90.2406C127.188 90.2406 121.875 85.0563 121.875 76.7094C121.891 68.0438 127.366 62.6438 136.144 62.6438ZM135.966 83.6C139.269 83.6 141.219 80.9813 141.219 76.4313C141.219 71.9344 139.322 69.2625 136.022 69.2625C132.606 69.2625 130.653 71.8813 130.653 76.4313C130.656 80.9813 132.619 83.6 135.966 83.6Z" fill="#004D40"/>
</svg>
