<svg width="150" height="150" viewBox="0 0 150 150" fill="none" xmlns="http://www.w3.org/2000/svg">
<mask id="mask0" mask-type="alpha" maskUnits="userSpaceOnUse" x="0" y="0" width="150" height="150">
<rect width="150" height="150" fill="#C4C4C4"/>
</mask>
<g mask="url(#mask0)">
</g>
<g clip-path="url(#clip0)">
<path d="M51.01 150C64.81 150 76.01 138.8 76.01 125V100H51.01C37.21 100 26.01 111.2 26.01 125C26.01 138.8 37.21 150 51.01 150Z" fill="#0ACF83"/>
<path d="M26.01 75C26.01 61.2 37.21 50 51.01 50H76.01V100H51.01C37.21 100 26.01 88.8 26.01 75Z" fill="#A259FF"/>
<path d="M26.01 25C26.01 11.2 37.21 3.05176e-05 51.01 3.05176e-05H76.01V50H51.01C37.21 50 26.01 38.8 26.01 25Z" fill="#F24E1E"/>
<path d="M76.01 3.05176e-05H101.01C114.81 3.05176e-05 126.01 11.2 126.01 25C126.01 38.8 114.81 50 101.01 50H76.01V3.05176e-05Z" fill="#FF7262"/>
<path d="M126.01 75C126.01 88.8 114.81 100 101.01 100C87.21 100 76.01 88.8 76.01 75C76.01 61.2 87.21 50 101.01 50C114.81 50 126.01 61.2 126.01 75Z" fill="#1ABCFE"/>
</g>
<defs>
<clipPath id="clip0">
<rect width="100.02" height="150" fill="white" transform="translate(26)"/>
</clipPath>
</defs>
</svg>
