<svg width="150" height="150" viewBox="0 0 150 150" fill="none" xmlns="http://www.w3.org/2000/svg">
<path d="M105.295 1.17188C105.093 1.18103 104.938 1.23596 104.828 1.33667L86.5448 23.053L82.8186 35.8704C80.2826 35.788 77.6642 35.7605 74.9817 35.7605C55.9753 35.7605 40.5487 37.7747 40.5487 40.2649C40.5487 46.225 109.406 46.225 109.406 40.2649C109.406 38.4247 101.166 36.8591 89.2731 36.1267L92.2302 25.5707L109.332 4.99878L109.36 4.97132C109.744 4.56848 108.994 3.3783 107.767 2.32544C106.851 1.53809 105.89 1.14441 105.295 1.17188ZM81.4087 40.9241L81.3446 41.1255C81.3171 41.1438 81.3171 41.1804 81.3171 41.2079C81.3171 41.5833 82.8094 41.8854 84.6222 41.8854C86.4349 41.8854 87.9364 41.5833 87.9364 41.2079L88.0005 40.979C88.4766 41.153 88.7329 41.3452 88.7329 41.5741C88.7329 42.1692 86.8927 42.6544 84.5947 42.6361C82.3608 42.6361 80.5115 42.1783 80.5115 41.5833C80.5115 41.3269 80.8777 41.098 81.4087 40.9241ZM109.021 42.6178C99.9115 47.4701 50.1434 47.5067 40.9973 42.6819L45.0439 78.2776C46.8018 72.6013 51.2512 64.9384 56.9641 62.6221C58.8409 61.853 60.7452 61.853 62.5305 62.8784C64.0778 63.7299 65.3961 65.5151 65.5426 66.2201C65.8997 68.0695 64.9475 68.8019 64.2059 68.8019C63.3087 68.8019 62.6221 67.5018 62.1735 66.7328C60.9558 64.6637 59.1064 64.5721 57.1381 65.9363C55.0781 67.3553 53.2928 69.7357 52.0477 71.8048C50.5188 74.3042 49.2371 77.0508 48.468 79.8065C48.0194 81.3995 47.6074 83.9447 48.2941 85.4462C48.5962 86.0779 49.0356 86.4715 49.7589 86.4715C51.2512 86.4715 53.4119 84.5947 54.4556 83.6059C55.7922 82.3334 57.5226 80.3375 58.1726 79.0649L59.7382 74.6704C60.5072 72.7478 62.677 73.0865 62.677 74.6704C62.677 77.5635 61.5784 78.5339 59.7015 84.5123C57.9803 90.0513 57.4402 91.8457 57.4402 91.8457C57.2296 92.633 56.424 93.9697 55.5634 93.9697C55.2063 93.9697 54.9408 93.8507 54.7943 93.6218C54.4922 93.219 54.5197 92.1295 54.5563 91.8457C54.6112 90.9393 56.424 85.5377 56.7261 84.6863C56.131 85.318 55.5084 85.9405 54.8218 86.5631C53.2104 88.0096 50.6287 89.9139 48.4222 89.9139C47.406 89.9139 46.756 89.6484 46.1334 89.2273L48.3948 111.804C48.9899 113.223 60.0677 116.666 74.6613 116.666C89.2822 116.666 100.36 113.205 100.928 111.804L104.178 84.9792C102.475 86.4532 100.516 88.2751 98.3368 89.1815C96.7346 89.8315 93.1549 90.2527 93.1549 87.5519C93.1549 86.0779 95.874 83.3588 97.4487 81.4636C97.8607 80.9784 98.8403 79.7882 98.8403 79.1656C98.8403 78.3417 97.0551 78.5339 95.3613 79.8614C94.4092 80.6305 93.512 81.6559 92.7612 82.6263C91.4886 84.3292 90.802 85.7941 90.2344 87.0117C88.3942 91.04 89.0167 89.4562 87.5244 93.2556C86.0321 97.0276 86.2793 96.5973 85.9772 97.229C85.7117 97.7692 85.318 98.2269 84.787 98.5016C84.2194 98.7854 83.4503 98.7579 82.9651 98.4192C82.6996 98.2452 82.5714 97.879 82.5714 97.3663C82.5714 97.11 82.608 96.8536 82.6721 96.5973C83.1207 94.8669 84.9976 91.4703 87.1399 86.8744C87.616 85.8215 87.4329 86.1328 87.3688 86.2152C85.5286 87.9181 84.1187 88.7421 83.0841 89.1998C81.3538 89.9322 79.2114 89.9322 78.772 88.0371C78.7354 87.9181 78.7445 87.7991 78.7079 87.6892C75.1923 90.2985 71.4752 91.0034 72.757 85.3912C71.3928 87.7167 69.0033 89.621 66.0828 89.621C64.856 89.621 63.9679 89.2273 63.5193 88.1836C62.8418 86.618 63.9038 83.9447 64.8834 81.4178C65.3961 80.1453 66.0828 78.6163 67.0074 76.831C67.4927 75.8606 68.2526 75.293 69.2688 75.5493C69.4519 75.6042 69.6075 75.6683 69.754 75.7507C70.5231 76.2634 70.2301 77.0233 69.8364 77.7924C68.7103 79.9164 67.7216 81.4728 67.0715 83.6883C66.806 84.6222 66.4673 86.2518 67.511 86.2518C68.2251 86.2518 68.9117 86.0138 69.5709 85.5652C70.9351 84.6039 72.0428 83.1573 72.876 81.7383C73.4711 80.722 74.1852 79.3854 74.5514 78.2501C74.6979 77.7649 74.881 77.3163 75.0824 76.886C75.412 76.1719 75.8606 75.4394 76.6296 75.4394C77.0233 75.4394 77.3438 75.5859 77.5818 75.8697C78.0945 76.4923 77.9846 77.1332 77.71 77.8198C77.1149 79.4037 76.3092 80.8319 75.65 82.5531C75.2655 83.551 74.8444 84.8236 74.8444 85.8765C74.8444 86.8378 75.9521 86.6089 76.8768 86.206C77.5909 85.8948 78.3051 85.4187 78.9001 84.9426C79.2664 83.551 79.1656 83.8623 86.7645 65.5884C87.1582 64.6545 87.8723 64.2517 88.5864 64.2517C88.9435 64.2517 89.2365 64.3707 89.5386 64.5721C90.0421 64.9384 90.0513 65.7257 89.8407 66.3208C89.6393 66.861 89.6576 66.687 88.4949 69.2963C86.9476 72.7295 85.9406 75.2014 84.5673 78.3508C83.9996 79.66 82.2784 83.7158 81.9763 84.6771C81.8024 85.3088 81.5918 86.3251 82.2784 86.3251C83.8898 86.3251 88.028 82.608 89.1632 81.5002C89.2181 81.4178 89.3097 81.3812 89.4287 81.3263C89.6027 80.7861 89.7858 80.2826 89.9323 79.7699C90.3442 78.6896 90.7379 77.4353 91.5161 76.5564C91.7542 76.2726 92.0197 76.1078 92.3126 76.1078C93.1458 76.1078 93.5669 76.4465 93.5669 77.243C93.5669 77.5543 93.3563 78.6896 93.2373 79.0008C93.6584 78.5797 94.0979 78.1494 94.574 77.7283C99.0417 73.7915 102.228 75.7965 102.228 77.7924C102.228 79.8889 99.5728 82.8003 98.1171 84.4208C97.641 84.9609 96.6614 85.9497 96.6339 86.2335C96.6339 86.6089 96.8903 86.7554 97.2839 86.7554C97.879 86.7554 99.1882 85.7574 99.6643 85.4187C101.157 84.3109 103.18 82.6172 104.608 81.4178L109.021 42.6178ZM50.0427 114.532L54.483 121.738L56.2134 144.26C56.2134 146.786 64.6454 148.828 75.0092 148.828C85.3729 148.828 93.8049 146.786 93.8049 144.26L95.1782 121.509L99.3713 114.532C87.5702 119.266 62.3199 119.44 50.0427 114.532Z" fill="#EB4A4B"/>
</svg>
