<svg width="150" height="150" viewBox="0 0 150 150" fill="none" xmlns="http://www.w3.org/2000/svg">
<path d="M141.937 0.189209H8.06274L19.873 134.064L75 149.811L130.127 134.064L141.937 0.189209Z" fill="#E65100"/>
<path d="M75 11.9995V137.604L119.098 125.006L128.943 11.9995H75Z" fill="#FF6D00"/>
<path d="M75 78.9368V63.1897H108.862L106.104 108.472L75 118.707V102.167L91.1438 96.6553L92.3279 78.9368H75ZM110.046 47.4365L111.224 31.6895H75V47.4365H110.046Z" fill="white"/>
<path d="M75 102.167V118.707L43.8965 108.472L42.3218 86.8103H58.0688L58.8562 96.6553L75 102.167ZM55.7068 47.4365H75V31.6895H39.1663L41.925 78.9368H75V63.1897H56.8848L55.7068 47.4365Z" fill="#EEEEEE"/>
</svg>
