<svg width="150" height="150" viewBox="0 0 150 150" fill="none" xmlns="http://www.w3.org/2000/svg">
<path d="M91.5 0.445345C91.1425 0.498079 90.7851 0.603548 90.4394 0.76175C87.5273 2.20902 84.2168 6.49808 83.5781 7.34769C83.5429 7.40042 83.5019 7.45316 83.4726 7.50589C80.2031 12.4043 78.457 18.1407 78.3925 24.1114C78.3515 28.5879 79.2246 33.0235 81 37.3008C85.1308 47.2207 93.7089 55.4297 103.922 59.2676C104.268 59.3848 104.596 59.5078 105.193 59.7188C105.246 59.7422 105.75 59.9063 105.826 59.918L106.201 60.0469C106.728 60.2227 107.273 60.3926 107.801 60.4981C110.49 61.043 113.109 61.3477 115.576 61.4297C115.998 61.4297 116.42 61.4414 116.848 61.4414C135.422 61.4414 142.629 48.3282 145.025 43.9629C145.266 43.5352 145.435 43.1895 145.594 42.9785C145.594 42.9668 145.594 42.9668 145.605 42.9551C146.654 41.4024 146.256 39.2989 144.709 38.2383C143.168 37.1953 141.064 37.5938 140.004 39.1407H139.992C135.041 46.4356 126.562 48.6504 114.82 45.7325C113.947 45.5215 112.992 45.1934 112.143 44.877C111.029 44.4785 109.922 44.0157 108.885 43.5117C106.834 42.4922 104.9 41.2735 103.154 39.92C92.8242 31.9102 88.7871 15.2403 94.8222 5.61331C95.6308 4.32425 95.4843 2.66019 94.4648 1.53519C93.6972 0.685579 92.5839 0.298861 91.5 0.445345ZM61.4648 7.2012C60.6972 7.18949 59.9179 7.43558 59.2793 7.96878C54.1582 12.1407 48.914 18.9727 48.6855 19.2481C48.6621 19.3008 48.6328 19.3418 48.5976 19.3946C39.3281 32.8887 38.625 52.0899 46.8222 68.3145C48.1054 70.8809 49.5644 73.3301 51.1113 75.5801L51.5742 76.2422C52.8867 78.1641 54.3574 80.3379 56.2382 82.0313C56.8828 82.7754 57.5859 83.4903 58.2773 84.1758L58.6054 84.5215L58.8867 84.7969C59.5839 85.4766 60.2988 86.1621 61.0429 86.8242H61.0546C61.1074 86.9063 61.1894 86.959 61.2539 87.0235C62.0859 87.7676 62.9355 88.4649 64.0605 89.3555L64.3652 89.5782C65.2382 90.2813 66.1289 90.9434 67.0429 91.5938C67.1367 91.6582 67.2246 91.7227 67.3183 91.793C67.6347 92.0039 67.957 92.2032 68.2734 92.4258L68.5898 92.6367L68.9589 92.877C69.6386 93.3282 70.3007 93.7383 71.2382 94.2832C71.8476 94.6524 72.498 95.0215 72.9199 95.2325C73.1074 95.3379 73.3066 95.4434 73.7695 95.6953L74.8007 96.2403C74.8535 96.2696 75.0937 96.375 75.1464 96.3985C75.8203 96.7442 76.5234 97.0723 77.2265 97.3946L78.2988 97.8692C79.0019 98.1739 79.7168 98.4668 80.5898 98.795L80.9882 98.9414C81.0117 98.9707 81.3457 99.0879 81.3691 99.0996C82.0078 99.3282 82.6523 99.5508 83.3027 99.7617L84.7851 100.254C85.5293 100.506 86.3906 100.793 87.3281 100.957C91.9511 101.725 96.4394 102.117 100.687 102.117C101.191 102.117 101.695 102.105 102.187 102.105C139.611 101.285 149.344 69.4922 149.432 69.1758C149.9 67.5703 149.144 65.8653 147.633 65.1504C146.121 64.4356 144.322 64.9336 143.385 66.3106C133.898 80.1621 115.969 86.0157 97.7109 81.1992C96.8613 80.9883 96.041 80.7481 95.0214 80.4141C94.8515 80.3614 94.705 80.3086 94.4238 80.2032C93.832 80.0215 93.246 79.8223 92.5839 79.5703L91.6464 79.2129C91.1015 79.002 90.5625 78.7852 89.9003 78.4981L89.4609 78.2989C88.6523 77.9532 87.873 77.5664 87.1699 77.2266L85.2363 76.2188C84.7968 76.0078 84.416 75.7676 83.8183 75.4102L83.4902 75.2227L83.1562 75.0293C82.6699 74.7364 82.1777 74.4317 81.7265 74.1153L81.4101 73.916C81.3808 73.8985 81.1171 73.7168 81.0937 73.6875C80.6953 73.4356 80.3085 73.1836 79.9394 72.9492C79.1191 72.3633 78.3105 71.7539 77.373 71.0157L76.998 70.711C68.2617 63.7325 61.7988 54.4102 58.7636 44.4082C55.9453 35.2325 58.0371 23.2207 64.3652 12.2871C65.1855 10.8692 64.8808 9.06449 63.6269 8.0098C63 7.4766 62.2324 7.2012 61.4648 7.2012ZM24.164 17.3672C23.3554 17.3672 22.5351 17.6602 21.8847 18.2461C15.4101 24.0586 10.5644 31.5938 10.0312 32.4551C-3.82035 52.6231 -1.14262 83.9649 8.36715 103.125C8.54879 103.523 8.74801 103.91 8.94723 104.291L9.08199 104.502C9.25191 104.889 9.45113 105.287 9.51558 105.363C9.62105 105.615 9.78512 105.897 9.84957 105.973C10.0078 106.307 10.166 106.594 10.4589 107.098L11.5429 108.967C11.7011 109.219 11.8593 109.482 11.9121 109.576C12.1289 109.922 12.3515 110.279 12.5742 110.637L13.1074 111.48C13.2656 111.732 13.4238 111.961 13.5293 112.09C14.0566 112.91 14.5898 113.736 15.1699 114.516C15.1992 114.557 15.2226 114.58 15.2519 114.609L15.4629 114.897C15.9375 115.588 16.4296 116.25 16.8691 116.795L18.8027 119.244C18.8261 119.268 19.0371 119.52 19.0546 119.549L19.33 119.865C19.9101 120.58 20.5371 121.295 21.1582 121.98C21.2519 122.092 21.3398 122.18 21.4336 122.285C22.0312 122.936 22.6406 123.586 23.2734 124.26L23.8828 124.846C24.3867 125.373 24.8906 125.889 25.4238 126.381C25.4238 126.393 25.6757 126.633 25.6757 126.633L26.2031 127.119C26.8359 127.729 27.498 128.338 28.0019 128.766C28.0312 128.801 28.5058 129.211 28.5468 129.24C29.1679 129.797 29.789 130.324 30.4277 130.84L33.6738 133.412C34.2128 133.811 34.7695 134.203 35.4082 134.672C35.6191 134.83 35.8418 134.988 36.0703 135.135C36.1582 135.211 36.2695 135.293 36.3339 135.334L38.7714 136.963C39.6562 137.543 40.541 138.088 41.6308 138.732L42.2109 139.066C42.8906 139.465 43.5761 139.857 44.2265 140.203C44.6074 140.414 44.9941 140.602 45.3222 140.772C45.7851 141.023 46.289 141.305 47.0566 141.674C47.1269 141.715 47.666 141.979 47.7363 142.008C48.5039 142.389 49.2832 142.746 50.2617 143.186C50.2617 143.197 50.5839 143.344 50.5839 143.344C51.4804 143.725 52.3535 144.1 53.5078 144.563C53.6953 144.639 53.8769 144.709 53.9179 144.721C54.7382 145.037 55.5996 145.354 56.3027 145.605C56.3671 145.635 56.7246 145.781 56.7949 145.805C57.7324 146.121 58.6582 146.426 59.8535 146.801C60.0468 146.865 60.2636 146.93 60.2871 146.93L60.9609 147.141C61.7871 147.393 62.6074 147.662 63.4921 147.832C69.7968 148.986 75.955 149.578 81.7793 149.578H81.791C130.353 149.578 145.816 110.502 145.98 110.104C146.572 108.527 145.928 106.752 144.439 105.932C142.986 105.123 141.129 105.51 140.098 106.846C127.635 123.252 104.133 129.346 77.2265 123.164C76.5761 123 75.914 122.818 75.2636 122.619L73.9921 122.232C73.1308 121.969 72.2695 121.676 71.4375 121.389C71.4257 121.389 71.039 121.242 71.039 121.242C70.3007 120.99 69.5566 120.697 68.9062 120.445L68.1679 120.158C67.3476 119.824 66.5273 119.479 65.7304 119.121L65.2675 118.922C64.5527 118.594 63.8613 118.277 63.1757 117.932C63.123 117.902 62.5781 117.639 62.5253 117.627C62.0507 117.387 61.5703 117.135 60.9609 116.807L58.1953 115.324C57.9199 115.137 57.6269 114.967 57.3457 114.82C56.5136 114.305 55.6523 113.789 54.8027 113.244C54.6093 113.127 54.4336 112.992 54.1054 112.77C53.5195 112.395 52.9511 112.014 52.1191 111.428L51.7851 111.193C51.2168 110.795 50.6601 110.367 50.1972 110.027C49.9043 109.816 49.6171 109.576 49.1367 109.219C48.7148 108.885 48.2929 108.568 47.8945 108.252L47.1503 107.643C46.5293 107.139 45.9492 106.611 45.3398 106.09C45.2578 106.014 45.1933 105.961 45.0996 105.897C44.4257 105.27 43.7343 104.648 42.914 103.869L40.5175 101.484C39.9375 100.887 39.3515 100.277 38.6894 99.5508C38.08 98.877 37.5 98.2032 36.7148 97.2715L35.2851 95.5254C35.1152 95.2735 34.9277 95.0215 34.705 94.7578C34.2128 94.0957 33.7265 93.4453 33.2343 92.7598C20.0449 74.5899 16.5996 36.6621 26.8769 22.7754C27.9082 21.3809 27.7265 19.4239 26.4257 18.2461C25.7929 17.6602 24.9726 17.3672 24.164 17.3672Z" fill="#0868AC"/>
</svg>
