<svg width="150" height="150" viewBox="0 0 150 150" fill="none" xmlns="http://www.w3.org/2000/svg">
<g clip-path="url(#clip0)">
<path d="M0 150V0H150V150H0Z" fill="#FFD600"/>
<path d="M99.9477 114.152C102.834 118.834 105.963 123.322 112.605 123.322C118.177 123.322 121.1 120.549 121.1 116.718C121.1 112.13 118.076 110.502 111.942 107.829L108.58 106.396C98.8773 102.283 92.4233 97.1246 92.4233 86.2261C92.4233 76.1852 100.11 68.5418 112.123 68.5418C120.674 68.5418 126.822 71.509 131.254 79.2651L120.781 85.9632C118.477 81.8442 115.986 80.2228 112.123 80.2228C108.179 80.2228 105.688 82.7143 105.688 85.9632C105.688 89.9758 108.186 91.6034 113.957 94.0885L117.319 95.5221C128.756 100.392 135.204 105.369 135.204 116.555C135.204 128.599 125.688 135.204 112.912 135.204C100.417 135.204 93.3247 128.937 89.3747 121.175L99.9477 114.152ZM51.6713 114.496C53.7809 118.271 56.9859 121.175 61.5932 121.175C66.0002 121.175 68.5417 119.429 68.5417 112.662V68.5418H82.4262V114.796C82.4262 128.825 74.2883 135.204 62.407 135.204C51.6713 135.204 43.9215 127.93 40.7603 121.175L51.6713 114.496Z" fill="#000001"/>
</g>
<defs>
<clipPath id="clip0">
<rect width="150" height="150" fill="white"/>
</clipPath>
</defs>
</svg>
