<svg width="150" height="150" viewBox="0 0 150 150" fill="none" xmlns="http://www.w3.org/2000/svg">
<mask id="mask0" mask-type="alpha" maskUnits="userSpaceOnUse" x="0" y="0" width="150" height="150">
<rect width="150" height="150" fill="#C4C4C4"/>
</mask>
<g mask="url(#mask0)">
</g>
<g clip-path="url(#clip0)">
<path d="M85.4704 47.0635L80.337 55.9524L62.7815 25.545L8.88889 118.878H45.3778C45.3778 123.787 49.3575 127.767 54.2667 127.767H8.88889C5.7135 127.767 2.7796 126.072 1.19217 123.322C-0.395263 120.572 -0.395102 117.184 1.1926 114.434L55.0852 21.1005C56.673 18.3501 59.6075 16.6558 62.7833 16.6558C65.9591 16.6558 68.8937 18.3501 70.4815 21.1005L85.4704 47.0635Z" fill="#00C58E"/>
<path d="M124.374 114.434L90.6037 55.9524L85.4704 47.0635L80.3371 55.9524L46.5704 114.434C44.9827 117.184 44.9825 120.572 46.57 123.322C48.1574 126.072 51.0913 127.767 54.2667 127.767H116.667C119.843 127.767 122.778 126.074 124.366 123.324C125.955 120.573 125.955 117.184 124.367 114.434H124.374ZM54.2667 118.878L85.4704 64.8412L116.667 118.878H54.2667L54.2667 118.878Z" fill="#2F495E"/>
<path d="M148.519 123.323C146.931 126.072 143.997 127.767 140.822 127.767H116.667C121.576 127.767 125.556 123.787 125.556 118.878H140.804L97.5371 43.9413L90.6038 55.9524L85.4705 47.0635L89.8408 39.4968C91.4286 36.7464 94.3632 35.0521 97.539 35.0521C100.715 35.0521 103.649 36.7464 105.237 39.4968L148.519 114.434C150.106 117.184 150.106 120.573 148.519 123.323Z" fill="#108775"/>
</g>
<defs>
<clipPath id="clip0">
<rect width="150" height="111.75" fill="white" transform="translate(0 16.2857)"/>
</clipPath>
</defs>
</svg>
