<svg width="150" height="150" viewBox="0 0 150 150" fill="none" xmlns="http://www.w3.org/2000/svg">
<path d="M123.755 1.87988H26.2451C12.793 1.87988 1.87988 12.793 1.87988 26.2451V123.755C1.87988 137.207 12.793 148.12 26.2451 148.12H123.755C137.207 148.12 148.12 137.207 148.12 123.755V26.2451C148.12 12.793 137.207 1.87988 123.755 1.87988Z" fill="#50E6FF"/>
<path d="M123.755 140.002H26.2451C17.273 140.002 9.99756 132.727 9.99756 123.755V26.2451C9.99756 17.273 17.273 9.99756 26.2451 9.99756H123.755C132.727 9.99756 140.002 17.273 140.002 26.2451V123.755C140.002 132.727 132.727 140.002 123.755 140.002Z" fill="#092347"/>
<path d="M36.438 39.9536C36.438 39.5142 36.7432 39.1602 37.1704 39.1113C38.7939 38.9282 43.335 38.562 53.0029 38.562C67.5781 38.562 77.7954 44.3359 77.7954 60.1562C77.7954 74.4263 68.0786 82.8003 52.4048 82.8003C51.4893 82.8003 50.5737 82.8003 47.4609 82.8003V106.702C47.4609 107.092 47.1436 107.422 46.7407 107.422H37.1582C36.7676 107.422 36.438 107.092 36.438 106.702V39.9536ZM47.4609 72.7539C47.4609 72.7539 52.2827 72.7905 53.3813 72.7905C62.3291 72.7905 66.394 67.4805 66.394 60.376C66.394 53.7109 62.439 48.5229 54.1626 48.5229C50.7568 48.5229 47.4731 48.7183 47.4731 48.7183V72.7539H47.4609Z" fill="white"/>
<path d="M83.7646 95.1904C83.7646 94.7998 84.1797 94.5679 84.4971 94.7754C86.5479 96.1426 90.6982 98.4863 97.1313 98.4863C101.343 98.4863 103.992 96.6797 103.992 93.7378C103.992 90.4663 99.4995 88.0981 95.8008 86.084C92.1143 84.082 83.8379 80.8838 83.8379 70.5444C83.8379 61.377 91.1621 55.8594 101.135 55.8594C104.944 55.8594 109.167 56.4453 112 57.4829C112.476 57.6538 112.756 58.1177 112.756 58.606V67.9199C112.756 68.2983 112.354 68.5547 112.036 68.335C110.254 67.1753 106.323 65.3931 100.903 65.3931C96.3989 65.3931 94.4214 67.5781 94.4214 69.812C94.4214 73.7305 99.6338 75.3662 104.309 78.1128C111.621 82.1777 115.002 86.145 115.002 92.3706C115.002 102.539 107.41 108.252 97.1436 108.252C91.8335 108.252 86.8408 107.092 84.2896 105.542C83.9355 105.322 83.7646 104.932 83.7646 104.517V95.1904Z" fill="white"/>
</svg>
