<svg width="150" height="150" viewBox="0 0 150 150" fill="none" xmlns="http://www.w3.org/2000/svg">
<path d="M137.759 93.0938C137.187 90.5031 134.837 87.4813 130.097 87.4813C129.128 87.4813 128.069 87.6031 126.862 87.8531C124.65 88.3094 122.766 88.5313 121.106 88.6063C134.022 66.6063 142.406 36.0469 134.103 25.4375C123.162 11.4594 108.434 9.37189 100.631 9.37189L99.8969 9.37501C96.9937 9.42189 93.9812 9.77814 90.95 10.4344L79.7531 12.8531C78.2281 12.6625 76.675 12.5281 75.0562 12.5H74.9625H74.9125L74.4375 12.4969C69.4593 12.4969 64.9187 13.5531 60.8718 15.5375L56.9625 13.9969C51.5875 11.8781 43.5 9.35626 35.5 9.35626C35.05 9.35626 34.6031 9.36564 34.1531 9.38126C26.2718 9.66564 19.5031 12.6563 14.575 18.0281C8.42496 24.7344 5.62496 34.5438 6.25934 47.1875C6.29059 47.8406 13.9406 112.5 35.625 112.5H35.7031L35.9031 112.497C38.7187 112.428 41.4031 111.297 43.9125 109.131C45.8281 110.569 48.3062 111.419 50.6156 111.756C52.1406 112.116 54.8843 112.625 58.1718 112.625C62.1843 112.625 65.8031 111.803 68.9218 110.319C68.9187 113.069 68.9031 116.55 68.8718 121L68.8687 121.234L68.8843 121.469C69.1875 125.903 69.9531 129.9 71.1062 133.034C74.3906 141.969 80.0625 146.891 87.0781 146.891C87.3687 146.891 87.6656 146.881 87.9656 146.863C93.7344 146.506 99.5812 143.266 103.603 138.2C107.956 132.716 108.962 126.928 109.35 122.494L109.375 122.222V121.947V109.2L109.697 109.231L111.059 109.35L111.191 109.363L111.322 109.369C111.709 109.388 112.109 109.394 112.512 109.394C117.222 109.394 123.019 108.172 126.937 106.35C130.684 104.613 139.247 99.8375 137.759 93.0938Z" fill="white"/>
<path d="M103.125 106.25C103.125 105.609 103.162 105.075 103.181 104.484C103.15 103.7 103.125 103.125 103.125 103.125C103.125 103.125 103.162 103.097 103.225 103.056C103.69 94.7031 105.994 91.4844 108.459 89.65C108.115 89.1719 107.719 88.6562 107.347 88.1656C106.306 86.8 105.009 85.1062 103.622 82.9343L103.365 82.4406C103.156 81.9281 102.65 81.0437 102.006 79.8812C98.3092 73.1937 90.6155 59.2812 95.8811 50.4937C98.1874 46.6437 102.512 44.425 108.759 43.8781C106.206 36.6187 96.6405 19.1094 74.953 18.75C74.9467 18.75 74.9405 18.75 74.9342 18.75C56.0561 18.4437 49.853 35.6 47.8342 45.85C50.6155 44.6719 53.7905 43.9562 56.6967 43.9562C56.7405 43.9562 56.7874 43.9562 56.8311 43.9562C63.9874 44.0094 68.9092 47.8281 70.3405 54.4375C71.3874 59.2875 71.8905 63.5312 71.878 67.4156C71.8467 75.9125 70.1342 80.3812 68.6217 84.325L68.1405 85.6C67.753 86.6437 67.3436 87.6156 66.9561 88.5281C66.5624 89.4594 66.2155 90.2875 65.9624 91.0344C67.4749 91.3781 68.6624 91.8625 69.478 92.2218L69.9499 92.4281C70.0967 92.4906 70.2436 92.5625 70.378 92.6437C73.028 94.2562 74.678 96.7344 75.0311 99.6218C75.2217 101.178 75.1905 111.787 75.1249 121.044C75.3967 125.059 76.078 128.431 76.978 130.875C78.2561 134.356 81.4499 141.003 87.5842 140.622C91.8655 140.356 95.9811 137.75 98.7123 134.312C101.644 130.622 102.725 126.541 103.131 121.944V106.25H103.125Z" fill="#0277BD"/>
<path d="M47.2311 90.3656C42.1905 85.1062 39.7343 78.0312 40.6561 71.4406C41.5468 65.0812 41.0436 58.8562 40.7717 55.5094C40.6811 54.3937 40.6217 53.5625 40.6249 53.1031C40.6249 53.0781 40.6311 53.0562 40.6343 53.0312C40.6343 53.0187 40.628 53.0094 40.628 52.9969C41.0061 43.5562 44.6467 28.6625 54.6686 19.8094C49.7874 17.8875 41.8374 15.3531 34.3749 15.625C22.6811 16.05 11.3624 24.1375 12.4999 46.875C12.928 55.4062 22.5686 106.572 35.7499 106.25C37.6342 106.203 39.5905 104.994 41.5999 102.575C44.778 98.7531 47.8655 95.2875 50.0624 92.875C49.078 92.1281 48.128 91.3031 47.2311 90.3656ZM115.697 46.0344C115.744 46.5156 115.703 46.9281 115.628 47.3094C115.725 50.1844 115.415 52.975 115.1 55.675C114.869 57.6625 114.631 59.7156 114.565 61.775C114.5 63.7906 114.784 65.7812 115.084 67.8875C115.787 72.8187 116.519 78.3844 112.694 84.8781C113.397 85.8031 114.016 86.6625 114.509 87.4937C128.916 64.1344 134.722 36.3656 129.181 29.2875C120.797 18.575 109.19 15.475 99.9967 15.625C97.1186 15.6719 94.503 16.0594 92.2686 16.5437C108.131 24.2312 115.197 40.7062 115.697 46.0344ZM128.125 93.9719C119.797 95.6906 115.79 94.775 113.847 93.5781C113.534 93.8031 113.222 93.9938 112.931 94.1719C111.769 94.875 109.928 95.9938 109.478 102.866C109.737 102.916 109.965 102.944 110.247 103.003L111.606 103.125C115.731 103.312 121.134 102.156 124.303 100.684C131.131 97.5156 134.853 92.5844 128.125 93.9719ZM68.8218 100.372C68.7061 99.4406 68.203 98.6875 67.2842 98.0844L66.9467 97.9375C65.8186 97.4406 64.5405 96.875 62.4999 96.875H62.4874C62.0905 96.9062 61.6967 96.9344 61.2999 96.9344C61.1374 96.9344 60.978 96.9125 60.8155 96.9062C59.3343 98.0469 57.228 98.9281 52.0155 100C42.703 102.372 48.1999 105.172 51.7717 105.606C55.228 106.472 63.4436 107.525 68.8999 103.078C68.8842 101.678 68.8592 100.716 68.8218 100.372Z" fill="#0277BD"/>
<path d="M64.6283 57.8156C63.7158 58.7594 62.2752 59.5844 60.6846 59.3281C58.0971 58.9094 56.1127 55.7875 56.2564 54.6156C56.3939 53.4469 58.6033 52.8375 61.1877 53.2562C62.0846 53.4031 62.9002 53.6563 63.5877 53.9688C62.5877 51.8188 60.7783 50.5781 58.0189 50.275C53.1283 49.7312 47.9377 52.2875 46.8939 53.7031C46.9158 54.0469 46.9564 54.4875 46.9971 55.0062C47.2877 58.5906 47.8252 65.2687 46.8408 72.3094C46.1908 76.95 48.0689 82.2125 51.7377 86.0438C54.1033 88.5125 56.8658 90.075 59.5908 90.5375C59.9377 89.0437 60.5564 87.5875 61.1939 86.0844C61.5471 85.2563 61.9221 84.375 62.2752 83.4219L62.7814 82.0875C64.1658 78.4781 65.5939 74.7437 65.6221 67.3906C65.6346 64.5625 65.2877 61.3344 64.6283 57.8156ZM108.897 68.7719C108.572 66.4937 108.238 64.1344 108.319 61.575C108.391 59.2563 108.647 57.0687 108.894 54.9531C109.088 53.2875 109.238 51.6875 109.325 50.1094C105.297 50.4437 102.622 51.6062 101.353 53.5719C101.878 53.3937 102.472 53.2531 103.128 53.1688C105.916 52.8063 107.95 53.6094 108.185 55.1594C108.356 56.2937 107.394 57.3625 106.972 57.7719C106.106 58.6125 105.016 59.1531 103.906 59.2969C103.706 59.3219 103.503 59.3344 103.306 59.3344C102.203 59.3344 101.15 58.9563 100.341 58.3969C100.691 64.5625 105.238 72.8094 107.475 76.8562C107.953 77.7219 108.322 78.4125 108.628 79.0062C109.856 75.5094 109.403 72.3219 108.897 68.7719Z" fill="#0277BD"/>
</svg>
