<svg width="150" height="150" viewBox="0 0 150 150" fill="none" xmlns="http://www.w3.org/2000/svg">
<g clip-path="url(#clip0)">
<path d="M75.1833 0.781254C69.1042 0.805667 64.8928 1.33057 59.8146 2.20948C44.7756 4.83399 42.0412 10.3272 42.0412 20.459V35.9375H77.1975V43.75H23.7062C13.4157 43.75 4.40693 48.5962 1.55049 60.2295C-1.68438 73.584 -1.81865 81.9336 1.55049 95.874C4.10176 106.274 9.74141 114.062 20.0441 114.062H34.2287V94.1284C34.2287 82.5439 44.7268 71.0938 56.7507 71.0938H85.01C94.8732 71.0938 104.541 63.8184 104.541 53.9917V20.459C104.541 10.9253 97.6686 3.8086 88.0617 2.20948C88.3059 2.18506 81.2014 0.756842 75.1833 0.781254ZM55.7131 16.4063C58.9235 16.4063 61.5725 19.0552 61.5725 22.2778C61.5725 25.5249 58.9235 28.125 55.7131 28.125C52.4416 28.125 49.8537 25.5371 49.8537 22.2778C49.8537 19.0674 52.4416 16.4063 55.7131 16.4063Z" fill="#0277BD"/>
<path d="M71.3989 149.219C77.478 149.194 81.6894 148.669 86.7676 147.791C101.807 145.166 104.541 139.673 104.541 129.541V114.062H69.3848V106.25H122.876C133.166 106.25 142.187 101.404 145.044 89.7705C148.267 76.416 148.413 68.0664 145.044 54.126C142.48 43.7256 136.841 35.9375 126.538 35.9375H112.354V55.8716C112.354 67.4561 101.855 78.9062 89.8315 78.9062H61.5723C51.709 78.9062 42.041 86.1816 42.041 96.0083V129.541C42.041 139.075 48.9136 146.191 58.5205 147.791C58.2764 147.815 65.3809 149.243 71.3989 149.219ZM90.8691 133.594C87.6587 133.594 85.0098 130.945 85.0098 127.722C85.0098 124.475 87.6587 121.875 90.8691 121.875C94.1406 121.875 96.7285 124.463 96.7285 127.722C96.7285 130.933 94.1406 133.594 90.8691 133.594Z" fill="#FFC107"/>
</g>
<defs>
<clipPath id="clip0">
<rect width="150" height="150" fill="white"/>
</clipPath>
</defs>
</svg>
