<svg width="500" height="500" viewBox="0 0 500 500" fill="none" xmlns="http://www.w3.org/2000/svg">
<mask id="mask0" style="mask-type:alpha" maskUnits="userSpaceOnUse" x="0" y="0" width="500" height="500">
<rect width="500" height="500" fill="#C4C4C4"/>
</mask>
<g mask="url(#mask0)">
<path d="M495.6 250.5C495.6 218 454.9 187.2 392.5 168.1C406.9 104.5 400.5 53.9 372.3 37.7C365.8 33.9 358.2 32.1 349.9 32.1V54.4C354.5 54.4 358.2 55.3 361.3 57C374.9 64.8 380.8 94.5 376.2 132.7C375.1 142.1 373.3 152 371.1 162.1C351.5 157.3 330.1 153.6 307.6 151.2C294.1 132.7 280.1 115.9 266 101.2C298.6 70.9 329.2 54.3 350 54.3V32C322.5 32 286.5 51.6 250.1 85.6C213.7 51.8 177.7 32.4 150.2 32.4V54.7C170.9 54.7 201.6 71.2 234.2 101.3C220.2 116 206.2 132.7 192.9 151.2C170.3 153.6 148.9 157.3 129.3 162.2C127 152.2 125.3 142.5 124.1 133.2C119.4 95 125.2 65.3 138.7 57.4C141.7 55.6 145.6 54.8 150.2 54.8V32.5C141.8 32.5 134.2 34.3 127.6 38.1C99.5 54.3 93.2 104.8 107.7 168.2C45.5 187.4 5 218.1 5 250.5C5 283 45.7 313.8 108.1 332.9C93.7 396.5 100.1 447.1 128.3 463.3C134.8 467.1 142.4 468.9 150.8 468.9C178.3 468.9 214.3 449.3 250.7 415.3C287.1 449.1 323.1 468.5 350.6 468.5C359 468.5 366.6 466.7 373.2 462.9C401.3 446.7 407.6 396.2 393.1 332.8C455.1 313.7 495.6 282.9 495.6 250.5ZM365.4 183.8C361.7 196.7 357.1 210 351.9 223.3C347.8 215.3 343.5 207.3 338.8 199.3C334.2 191.3 329.3 183.5 324.4 175.9C338.6 178 352.3 180.6 365.4 183.8ZM319.6 290.3C311.8 303.8 303.8 316.6 295.5 328.5C280.6 329.8 265.5 330.5 250.3 330.5C235.2 330.5 220.1 329.8 205.3 328.6C197 316.7 188.9 304 181.1 290.6C173.5 277.5 166.6 264.2 160.3 250.8C166.5 237.4 173.5 224 181 210.9C188.8 197.4 196.8 184.6 205.1 172.7C220 171.4 235.1 170.7 250.3 170.7C265.4 170.7 280.5 171.4 295.3 172.6C303.6 184.5 311.7 197.2 319.5 210.6C327.1 223.7 334 237 340.3 250.4C334 263.8 327.1 277.2 319.6 290.3ZM351.9 277.3C357.3 290.7 361.9 304.1 365.7 317.1C352.6 320.3 338.8 323 324.5 325.1C329.4 317.4 334.3 309.5 338.9 301.4C343.5 293.4 347.8 285.3 351.9 277.3ZM250.5 384C241.2 374.4 231.9 363.7 222.7 352C231.7 352.4 240.9 352.7 250.2 352.7C259.6 352.7 268.9 352.5 278 352C269 363.7 259.7 374.4 250.5 384ZM176.1 325.1C161.9 323 148.2 320.4 135.1 317.2C138.8 304.3 143.4 291 148.6 277.7C152.7 285.7 157 293.7 161.7 301.7C166.4 309.7 171.2 317.5 176.1 325.1ZM250 117C259.3 126.6 268.6 137.3 277.8 149C268.8 148.6 259.6 148.3 250.3 148.3C240.9 148.3 231.6 148.5 222.5 149C231.5 137.3 240.8 126.6 250 117ZM176 175.9C171.1 183.6 166.2 191.5 161.6 199.6C157 207.6 152.7 215.6 148.6 223.6C143.2 210.2 138.6 196.8 134.8 183.8C147.9 180.7 161.7 178 176 175.9ZM85.5 301.1C50.1 286 27.2 266.2 27.2 250.5C27.2 234.8 50.1 214.9 85.5 199.9C94.1 196.2 103.5 192.9 113.2 189.8C118.9 209.4 126.4 229.8 135.7 250.7C126.5 271.5 119.1 291.8 113.5 311.3C103.6 308.2 94.2 304.8 85.5 301.1ZM139.3 444C125.7 436.2 119.8 406.5 124.4 368.3C125.5 358.9 127.3 349 129.5 338.9C149.1 343.7 170.5 347.4 193 349.8C206.5 368.3 220.5 385.1 234.6 399.8C202 430.1 171.4 446.7 150.6 446.7C146.1 446.6 142.3 445.7 139.3 444ZM376.5 367.8C381.2 406 375.4 435.7 361.9 443.6C358.9 445.4 355 446.2 350.4 446.2C329.7 446.2 299 429.7 266.4 399.6C280.4 384.9 294.4 368.2 307.7 349.7C330.3 347.3 351.7 343.6 371.3 338.7C373.6 348.8 375.4 358.5 376.5 367.8ZM415 301.1C406.4 304.8 397 308.1 387.3 311.2C381.6 291.6 374.1 271.2 364.8 250.3C374 229.5 381.4 209.2 387 189.7C396.9 192.8 406.3 196.2 415.1 199.9C450.5 215 473.4 234.8 473.4 250.5C473.3 266.2 450.4 286.1 415 301.1Z" fill="#61DAFB"/>
<path d="M250.2 296.2C275.439 296.2 295.9 275.739 295.9 250.5C295.9 225.261 275.439 204.8 250.2 204.8C224.961 204.8 204.5 225.261 204.5 250.5C204.5 275.739 224.961 296.2 250.2 296.2Z" fill="#61DAFB"/>
</g>
</svg>
