<svg width="150" height="150" viewBox="0 0 150 150" fill="none" xmlns="http://www.w3.org/2000/svg">
<path d="M128.058 81.543C122.913 81.5674 118.457 82.8003 114.728 84.6436C113.361 81.9153 111.981 79.5227 111.749 77.7405C111.475 75.6592 111.163 74.4141 111.493 71.9361C111.816 69.458 113.251 65.9485 113.232 65.6861C113.214 65.4175 112.909 64.1602 109.943 64.1358C106.982 64.1175 104.443 64.7095 104.144 65.4907C103.845 66.272 103.278 68.0359 102.917 69.8731C102.405 72.5647 96.9971 82.1533 93.9331 87.1704C92.9321 85.2112 92.0776 83.4839 91.9006 82.1228C91.626 80.0415 91.3147 78.7964 91.6443 76.3184C91.9678 73.8404 93.4021 70.3308 93.3838 70.0684C93.3655 69.8059 93.0603 68.5425 90.094 68.5181C87.1338 68.4998 84.5947 69.0918 84.2957 69.8731C83.9966 70.6543 83.6792 72.4854 83.0688 74.2554C82.4646 76.0254 75.2869 92.0288 73.4009 96.1731C72.4426 98.291 71.6064 99.9878 71.0205 101.147C71.0205 101.141 71.0205 101.135 71.0205 101.135C71.0205 101.135 70.9778 101.215 70.9229 101.343C70.4163 102.332 70.1172 102.875 70.1172 102.875C70.1172 102.875 70.1233 102.881 70.1294 102.899C69.7266 103.626 69.2993 104.297 69.0857 104.297C68.9392 104.297 68.6462 102.368 69.1528 99.7193C70.2209 94.1651 72.7844 85.5103 72.76 85.2112C72.7478 85.0586 73.2422 83.551 71.0876 82.7637C68.9941 81.9947 68.2495 83.2703 68.0603 83.2764C67.8772 83.2764 67.7368 83.7281 67.7368 83.7281C67.7368 83.7281 70.0684 73.9929 63.2873 73.9929C59.0515 73.9929 53.1799 78.6316 50.2869 82.8369C48.4619 83.8318 44.5496 85.9619 40.4114 88.2385C38.8184 89.1175 37.1948 90.0086 35.6506 90.857C35.5469 90.741 35.4431 90.6311 35.3332 90.5091C27.1118 81.7383 11.9141 75.5371 12.561 63.7451C12.793 59.4605 14.2822 48.169 41.7602 34.4788C64.2639 23.2666 82.2876 26.3489 85.4004 33.1909C89.8438 42.9627 75.769 61.1206 52.3987 63.7451C43.4937 64.7461 38.8 61.2915 37.6343 60.0037C36.4075 58.6548 36.2244 58.5938 35.7666 58.844C35.0159 59.2591 35.4919 60.4553 35.7666 61.1695C36.4624 62.9822 39.3249 66.2049 44.2078 67.8101C48.5046 69.22 58.96 69.989 71.6003 65.1001C85.7666 59.6192 96.8262 44.3787 93.573 31.6468C90.271 18.689 68.7927 14.4287 48.4619 21.6553C36.3464 25.9522 23.2483 32.7027 13.8306 41.51C2.63061 51.9837 0.848383 61.1023 1.58081 64.9109C4.19311 78.4424 22.8516 87.2559 30.3223 93.7866C29.9499 93.9942 29.6081 94.1834 29.2908 94.3543C25.5432 96.2097 11.322 103.65 7.76977 111.511C3.72924 120.435 8.41064 126.831 11.5051 127.692C21.0998 130.365 30.9448 125.562 36.2366 117.67C41.5283 109.784 40.8813 99.5056 38.4521 94.8181C38.4216 94.7632 38.3911 94.7022 38.3606 94.6472C39.3249 94.0735 40.3137 93.4937 41.2903 92.9138C43.1946 91.7969 45.0684 90.7532 46.6858 89.8682C45.7764 92.3584 45.1111 95.343 44.7693 99.6521C44.3603 104.718 46.4355 111.261 49.1516 113.837C50.3479 114.966 51.7883 114.996 52.6978 114.996C55.8594 114.996 57.2998 112.366 58.8867 109.259C60.8337 105.444 62.561 101.007 62.561 101.007C62.561 101.007 60.3943 112.994 66.3025 112.994C68.4509 112.994 70.6177 110.205 71.582 108.783C71.5881 108.801 71.5881 108.807 71.5881 108.807C71.5881 108.807 71.6431 108.71 71.7529 108.527C71.9788 108.185 72.1069 107.971 72.1069 107.971C72.1069 107.971 72.1069 107.947 72.113 107.904C72.9797 106.403 74.9023 102.979 77.7771 97.3328C81.4941 90.0391 85.0586 80.896 85.0586 80.896C85.0586 80.896 85.3882 83.1299 86.4746 86.8286C87.1155 89.0015 88.4705 91.4063 89.5447 93.7134C88.6841 94.9097 88.1531 95.5933 88.1531 95.5933C88.1531 95.5933 88.1592 95.6055 88.1653 95.6299C87.4817 96.5454 86.7065 97.5342 85.8948 98.4986C82.959 101.99 79.4678 105.981 78.9978 107.135C78.4485 108.49 78.5767 109.485 79.6448 110.291C80.426 110.876 81.8054 110.974 83.2581 110.876C85.8948 110.699 87.7441 110.04 88.6597 109.644C90.0879 109.137 91.7542 108.35 93.3105 107.202C96.1914 105.084 97.9248 102.057 97.76 98.0469C97.6624 95.8374 96.9604 93.6463 96.0693 91.5772C96.3318 91.2049 96.5881 90.8203 96.8567 90.4419C101.392 83.8074 104.913 76.5198 104.913 76.5198C104.913 76.5198 105.243 78.7537 106.329 82.4524C106.879 84.3201 107.965 86.3648 108.942 88.3606C104.675 91.8274 102.032 95.8557 101.111 98.4986C99.4141 103.387 100.745 105.603 103.241 106.11C104.37 106.335 105.969 105.817 107.166 105.31C108.661 104.816 110.455 103.986 112.134 102.753C115.015 100.635 117.786 97.6746 117.615 93.6646C117.541 91.8396 117.047 90.0269 116.37 88.2874C119.989 86.7798 124.67 85.9436 130.64 86.6394C143.433 88.1348 145.941 96.1243 145.465 99.469C144.983 102.808 142.297 104.651 141.4 105.206C140.503 105.762 140.228 105.951 140.301 106.366C140.411 106.964 140.826 106.946 141.595 106.812C142.645 106.635 148.309 104.095 148.553 97.9187C148.859 90.0757 141.351 81.4697 128.058 81.543ZM29.425 114.789C25.1831 119.415 19.2688 121.161 16.7236 119.69C13.9831 118.103 15.0696 111.292 20.2698 106.384C23.4375 103.394 27.533 100.641 30.249 98.9441C30.8655 98.5718 31.7749 98.0286 32.8735 97.3694C33.0566 97.2656 33.1604 97.2046 33.1604 97.2046V97.1985C33.374 97.0703 33.5937 96.9422 33.8135 96.8018C35.7117 103.79 33.8745 109.937 29.425 114.789ZM60.3027 93.805C58.8318 97.3999 55.7373 106.61 53.8574 106.116C52.24 105.688 51.2573 98.6878 53.5339 91.803C54.6814 88.3362 57.1289 84.1919 58.5632 82.5867C60.8765 79.9927 63.4277 79.1504 64.0442 80.2002C64.8315 81.5369 61.2305 91.5467 60.3027 93.805ZM85.8154 105.975C85.1868 106.299 84.613 106.506 84.3506 106.348C84.1492 106.232 84.6069 105.798 84.6069 105.798C84.6069 105.798 87.7991 102.368 89.0564 100.806C89.7888 99.8963 90.6311 98.8159 91.5527 97.6074C91.5588 97.7295 91.5649 97.8516 91.5649 97.9676C91.5588 102.081 87.5854 104.858 85.8154 105.975ZM105.463 101.495C104.999 101.16 105.078 100.085 106.61 96.7407C107.214 95.4285 108.594 93.219 110.98 91.1011C111.255 91.9739 111.426 92.804 111.42 93.5791C111.389 98.7549 107.697 100.69 105.463 101.495Z" fill="#F06292"/>
</svg>
