<svg width="350" height="330" viewBox="0 0 350 330" fill="none" xmlns="http://www.w3.org/2000/svg">
<mask id="mask0" mask-type="alpha" maskUnits="userSpaceOnUse" x="0" y="0" width="350" height="330">
<rect width="350" height="330" fill="#C4C4C4"/>
</mask>
<g mask="url(#mask0)">
<path d="M336 168.5C336 238 264.619 312.5 181.5 312.5C98.3811 312.5 2 243.619 2 160.5C2 77.3811 98.3811 3.5 181.5 3.5C264.619 3.5 336 93 336 168.5Z" fill="#FAFAFC"/>
<path d="M37.4608 268.471C73.8261 327.697 201.128 349.462 271.961 305.971C342.793 262.479 369.452 160.803 325.961 89.9706C282.47 19.138 164.293 -14.5206 93.4609 28.9707C22.6283 72.4619 -2.04394 204.131 37.4608 268.471Z" fill="#FAFAFC"/>
<g filter="url(#filter0_d)">
<path d="M159.409 170.879C159.125 170.735 159.071 171.015 158.989 171.323C158.936 171.521 158.884 171.721 158.831 171.906C158.346 173.794 157.814 175.682 157.378 177.571C156.894 179.556 156.555 181.589 156.071 183.574C155.296 186.721 154.328 189.82 154.134 193.112C154.086 193.79 153.699 194.08 153.021 194.08C151.956 194.032 150.891 194.032 149.777 193.983C149.099 193.935 148.857 194.225 148.518 194.806C146.146 199.019 146.001 203.715 145.662 208.363C145.468 210.783 145.081 213.204 144.548 215.577C144.306 216.69 143.531 217.755 142.854 218.724C141.159 221.29 140.53 224.243 139.658 227.099C138.738 230.246 137.964 233.442 137.141 236.589C136.899 237.557 136.947 238.477 137.576 239.3C137.722 239.494 137.77 239.736 137.818 239.929C138.061 241.817 138.303 243.754 138.399 245.642C138.448 246.756 138.206 247.918 138.157 249.031C138.109 249.467 138.061 249.951 138.206 250.387C138.593 251.791 137.818 252.614 136.753 253.243C134.091 254.793 131.476 256.487 128.765 257.891C127.361 258.618 125.763 259.053 124.069 258.714C122.326 258.375 120.583 258.133 118.888 257.843C117.484 257.601 117 257.02 117 255.664C117 253.389 117.968 251.452 119.663 250C121.842 248.208 123.633 246.175 124.746 243.56C125.231 242.447 125.957 241.479 126.586 240.462C126.731 240.171 126.925 239.881 126.974 239.59C127.07 238.428 127.409 238.041 128.668 238.041V238.041C129.33 238.041 129.924 237.642 130.072 236.997C130.394 235.584 130.77 234.165 130.847 232.715C131.428 224.727 131.96 216.738 132.444 208.75C132.638 205.264 134.139 202.214 135.204 199.019C135.882 196.937 136.269 194.71 136.753 192.579C136.85 192.047 136.705 191.708 136.124 191.563C135.301 191.369 134.478 191.078 133.655 190.982C132.735 190.885 132.638 190.401 132.735 189.674C133.171 187.06 133.655 184.397 134.091 181.783C134.914 176.457 135.688 171.083 136.608 165.757C137.48 160.867 138.545 156.074 139.561 151.233C139.804 149.926 140.046 148.618 140.336 147.311C140.53 146.44 140.094 146.004 139.271 145.907C138.496 145.81 137.722 145.714 136.947 145.762C135.64 145.81 134.575 145.229 133.752 144.358C131.282 141.695 128.716 139.129 126.489 136.321C125.037 134.53 124.069 132.351 122.955 130.318C122.374 129.349 121.89 128.284 121.357 127.267C120.776 126.105 120.873 124.992 121.357 123.782C123.391 119.134 126.731 115.454 130.217 111.92C130.459 111.678 130.75 111.484 131.04 111.242C132.202 110.419 132.686 109.209 133.171 107.95C134.236 104.948 136.269 102.721 138.835 100.93C139.223 100.688 139.658 100.445 139.9 100.058C140.481 99.0414 141.353 98.9446 142.418 98.7993C144.742 98.5089 147.114 98.5089 149.244 97.3469C150.503 96.6207 151.714 95.7976 152.876 94.9261C153.747 94.2967 154.183 93.4253 154.231 92.3601C154.28 90.133 154.376 87.9544 154.425 85.7273C154.425 84.8558 154.328 84.1296 153.118 84.0812C152.876 84.0812 152.488 83.5002 152.343 83.1613C152.101 82.5319 152.053 81.8541 151.956 81.1763C151.907 80.8858 151.859 80.4016 152.053 80.2564C152.827 79.5786 152.682 78.7555 152.682 77.9324C152.682 77.303 152.73 76.6252 152.634 75.9958C152.488 74.8823 152.876 73.9624 153.457 73.0909C154.086 72.171 154.619 71.2027 155.345 70.3797C158.443 66.6517 162.462 66.5065 165.851 69.7503C166.916 70.767 167.787 72.0742 168.659 73.333C169.676 74.8823 170.015 76.6252 169.724 78.465C169.636 79.0395 169.507 79.6141 170.074 79.9677C170.19 80.0394 170.306 80.112 170.402 80.208V80.208C171.322 81.3699 170.208 84.178 168.804 84.5169C168.417 84.6137 167.981 84.9526 167.787 85.34C166.819 87.6155 166.819 90.0846 167.11 92.457C167.255 93.5221 168.175 94.5388 168.901 95.4587C169.095 95.7008 169.966 95.4103 170.499 95.265C170.587 95.2503 170.667 95.213 170.746 95.1614C171.081 94.942 171.494 95.0515 171.626 95.4299V95.4299C171.765 95.8268 172.257 95.9423 172.675 95.8976C173.212 95.8402 173.659 96.1838 174.13 96.6207C174.227 96.7175 174.517 96.7659 174.662 96.7175C175.776 96.427 176.647 96.9112 177.228 97.6858C177.809 98.412 178.39 98.5573 179.165 98.412C180.036 98.2184 180.424 98.7025 180.714 99.3803C180.859 99.6708 181.005 100.058 181.247 100.252C182.328 101.162 183.409 102.039 184.51 102.922C185.526 103.737 187.046 103.102 187.105 101.801V101.801C187.202 99.8161 187.783 98.0731 188.848 96.3786C189.671 94.9746 190.349 93.4737 191.123 92.0696C191.414 91.5855 191.85 91.1498 192.189 90.6656C192.866 89.8426 193.738 89.4552 194.851 89.5036C195.626 89.5521 196.498 89.4552 197.272 89.2132C199.499 88.5838 201.049 88.9711 202.549 90.7624C204.583 93.2316 205.89 96.0397 206.471 99.1867C207.294 103.738 207.633 108.289 207.488 112.888C207.439 114.292 207.488 114.486 208.843 114.292C211.942 113.953 213.975 115.599 215.767 117.681C217.219 119.327 218.43 121.167 219.882 122.862C220.899 124.024 222.109 125.04 223.126 126.202C224.724 128.09 226.321 129.979 227.774 131.964C228.403 132.787 228.839 133.755 229.226 134.723C229.759 136.031 229.613 137.241 228.645 138.451C227.871 139.371 227.338 140.533 226.757 141.647C225.159 144.648 223.126 147.263 220.511 149.442C219.93 149.926 219.398 150.507 218.817 151.039C217.348 152.345 217.495 152.653 215.867 152.602C215.315 152.585 214.871 153.097 215.089 153.605V153.605C215.815 155.978 216.541 158.301 217.316 160.674C217.945 162.61 218.623 164.547 219.349 166.484C221.044 171.035 222.061 175.731 222.642 180.524C223.126 184.494 223.32 188.513 223.658 192.483C223.997 196.791 224.772 201.004 226.757 204.925C228.742 208.847 229.275 213.107 229.71 217.368C230.243 222.597 230.775 227.777 231.26 233.006C231.356 234.216 231.55 235.33 232.857 236.008C233.245 236.201 233.438 236.928 233.68 237.46C233.922 238.041 234.31 238.671 234.31 239.3C234.358 242.35 235.956 244.529 238.183 246.417C239.054 247.143 239.635 248.015 239.297 249.225C239.248 249.467 239.297 249.758 239.345 250C239.539 251.307 239.393 251.694 238.135 251.936C236.15 252.324 234.165 252.856 232.083 252.227C229.033 251.355 226.951 249.419 225.595 246.611C225.498 246.369 225.45 246.126 225.45 245.836C225.498 243.851 225.595 241.866 225.643 239.881V239.881C225.643 239.421 225.905 239.025 226.056 238.591C226.371 237.681 226.048 236.772 225.692 235.862C224.385 232.425 223.126 228.988 221.77 225.55C221.383 224.582 220.85 223.662 220.366 222.79C218.236 219.111 217.171 215.141 216.735 210.929C216.445 208.024 215.525 205.313 214.169 202.698C212.959 200.326 212.329 197.615 211.313 195.145C209.473 190.691 207.488 186.237 205.551 181.783C204.68 179.749 203.76 177.716 202.743 175.779C202.356 175.005 201.678 174.327 201 173.746C200.226 173.068 199.935 173.213 199.741 174.23C199.015 177.91 198.144 181.541 197.611 185.269C196.982 189.529 196.643 193.887 196.062 198.147C195.771 200.181 194.997 202.214 194.755 204.247C194.513 206.813 194.464 209.379 194.609 211.945C194.803 215.431 194.319 218.82 193.254 222.064C191.85 226.325 191.559 230.73 191.027 235.088C190.881 236.201 191.123 237.218 191.559 238.332C192.092 239.736 191.995 241.382 192.14 242.931C192.189 243.56 192.189 244.238 192.14 244.868C192.092 245.497 191.947 246.078 191.898 246.707C191.898 247.046 191.947 247.434 192.189 247.676C192.915 248.499 193.738 249.177 194.416 250C194.9 250.532 195.336 251.21 195.578 251.888C195.965 253.05 196.207 254.26 196.352 255.519C196.498 256.971 195.965 257.552 194.561 257.794C192.915 258.037 191.317 258.23 189.671 257.649C188.412 257.214 187.008 257.068 185.701 256.633C184.926 256.342 184.297 255.713 183.571 255.228C183.377 255.083 183.232 254.938 183.038 254.841C182.07 254.502 181.102 254.115 180.085 253.824C177.567 253.001 177.083 252.42 176.986 249.806C176.986 249.225 177.035 248.644 177.18 248.063C177.616 245.788 178.245 243.512 178.536 241.188C178.681 240.22 179.117 239.397 179.262 238.477C179.455 237.412 179.262 236.25 179.02 235.185C177.713 229.568 176.502 223.904 173.694 218.82C171.757 215.286 171.08 211.51 170.983 207.54C170.934 206.087 170.838 204.635 170.741 203.134C170.644 200.762 170.015 198.534 168.998 196.404C168.61 195.581 168.272 194.71 167.884 193.935C167.739 193.644 167.4 193.451 167.158 193.209C166.771 192.773 166.287 192.386 166.093 191.902C165.173 188.948 164.302 185.995 163.43 183.042C162.51 179.943 161.639 176.844 160.719 173.794C160.506 173.029 160.219 172.263 159.955 171.497C159.884 171.29 159.604 170.977 159.409 170.879V170.879ZM139.93 139.253C139.99 139.264 140.036 139.22 140.065 139.166V139.166C140.078 139.144 140.109 139.129 140.135 139.129C140.557 139.126 140.978 139.082 141.353 139.129C142.273 139.274 142.563 138.839 142.612 138.016C142.708 136.757 142.757 135.498 142.95 134.239C143.338 131.625 143.87 129.059 144.258 126.444C144.403 125.331 144.403 124.12 144.112 123.055C143.58 121.216 143.289 119.424 143.435 117.488C143.531 116.422 143.144 115.503 142.224 114.873C142.031 114.728 141.546 114.679 141.401 114.825C140.723 115.406 140.142 116.035 139.513 116.665C137.044 119.085 135.01 121.99 131.96 123.83C130.508 124.701 130.556 125.379 131.186 126.977C131.621 128.139 131.767 129.349 132.106 130.56C132.444 131.722 132.638 132.98 133.219 134.046C133.897 135.353 134.865 136.563 135.737 137.725C136.027 138.112 136.511 138.451 136.947 138.597C137.88 138.923 138.903 139.07 139.93 139.253ZM208.412 135.2C208.369 135.574 208.347 135.762 208.361 136.562C208.376 137.363 208.438 137.771 208.563 138.589C208.735 139.721 208.908 140.853 209.037 141.986C209.424 144.987 211.748 146.149 214.072 147.263C214.556 147.505 215.525 147.263 215.912 146.924C216.638 146.295 217.219 145.423 217.752 144.552C219.204 142.082 220.608 139.613 221.964 137.096C222.303 136.466 222.4 135.692 221.77 135.111C220.802 134.142 219.834 133.222 218.817 132.303C217.268 130.85 215.718 129.349 214.169 127.897C213.685 127.413 213.298 126.88 212.813 126.348C211.942 125.428 211.022 125.573 210.683 126.735C209.87 129.539 208.751 132.275 208.412 135.2ZM180.912 168.148C181.024 168.361 181.365 168.358 181.44 168.13V168.13C181.779 166.532 182.07 164.934 182.457 163.385C183.038 161.206 183.522 158.979 184.442 156.946C185.798 154.041 186.572 150.942 187.396 147.892C187.589 147.214 187.88 146.537 187.783 145.907C187.492 144.358 186.96 142.905 186.524 141.405C186.379 140.824 185.943 140.63 185.459 141.017C184.636 141.647 183.861 142.324 183.087 143.002C182.651 143.39 182.312 143.874 181.876 144.213C180.859 145.133 179.504 145.229 178.245 145.423C176.744 145.617 176.696 145.617 176.793 147.166C176.841 148.086 177.18 149.006 177.374 149.877C177.519 150.507 177.664 151.136 177.761 151.765C177.858 152.25 177.809 152.734 177.906 153.218C178.584 156.51 179.31 159.754 179.94 163.046C180.227 164.531 180.372 166.017 180.61 167.502C180.615 167.533 180.623 167.564 180.635 167.593C180.71 167.782 180.809 167.951 180.912 168.148ZM176.696 138.548C178.826 138.645 180.714 137.677 182.264 135.837C182.699 135.304 183.232 134.772 183.716 134.239C184.781 133.029 184.733 132.835 184.006 131.431C183.135 129.785 182.167 128.187 181.537 126.444C180.811 124.314 179.746 123.685 177.374 125.04C177.228 125.137 177.132 125.234 176.938 125.282C174.953 125.815 174.662 127.364 174.759 129.107C174.904 131.77 175.34 134.433 174.904 137.144C174.662 138.597 174.856 138.597 176.696 138.548ZM181.896 178.769C181.884 178.693 181.819 178.636 181.741 178.636V178.636C181.655 178.636 181.586 178.705 181.586 178.791C181.586 179.224 181.586 179.661 181.586 180.137C181.779 183.187 181.925 186.237 182.118 189.287C182.215 190.788 182.215 190.836 180.763 191.175C179.988 191.321 179.891 191.708 179.94 192.386C180.085 195 180.714 197.469 181.731 199.842C182.079 200.633 182.407 201.425 182.741 202.217C182.981 202.786 183.861 202.88 183.861 202.262V202.262C183.958 200.907 184.103 199.551 183.958 198.196C183.381 192.044 182.757 185.939 182.132 179.788C182.123 179.698 182.101 179.61 182.072 179.524C181.979 179.248 181.934 179.017 181.896 178.769Z" fill="url(#paint0_linear)"/>
</g>
<path d="M257.252 146.878L248.056 147.055L247.968 142.457C247.952 141.565 247.421 140.762 246.606 140.398C245.79 140.035 244.838 140.175 244.164 140.76L230.591 152.521C230.073 152.967 229.78 153.622 229.793 154.307C229.807 154.991 230.124 155.634 230.659 156.061L244.675 167.29C245.095 167.624 245.618 167.802 246.156 167.79C246.489 167.784 246.817 167.707 247.117 167.564C247.925 167.172 248.43 166.345 248.41 165.447L248.322 160.849L257.517 160.672C258.788 160.647 259.797 159.598 259.772 158.329L259.595 149.133C259.571 147.863 258.522 146.854 257.252 146.878V146.878Z" fill="#E5E5E5"/>
<path d="M95.4446 146.577L104.64 146.754L104.729 142.156C104.744 141.264 105.275 140.461 106.091 140.097C106.906 139.734 107.858 139.874 108.532 140.459L122.106 152.219C122.623 152.666 122.916 153.32 122.903 154.005C122.89 154.689 122.572 155.333 122.037 155.759L108.022 166.989C107.601 167.323 107.078 167.5 106.54 167.489C106.208 167.483 105.88 167.406 105.579 167.263C104.771 166.871 104.267 166.044 104.286 165.145L104.375 160.547L95.179 160.37C93.9088 160.346 92.8994 159.297 92.9238 158.028L93.1009 148.832C93.1253 147.562 94.1743 146.552 95.4446 146.577V146.577Z" fill="#E5E5E5"/>
<rect x="41" y="223.516" width="18.9523" height="18.9523" rx="6" transform="rotate(-60.6254 41 223.516)" fill="#FFE047" fill-opacity="0.8"/>
<rect x="276.624" y="78.8094" width="17" height="17" rx="4" transform="rotate(68.4766 276.624 78.8094)" fill="#FFE047" fill-opacity="0.8"/>
<rect x="122.724" y="42.2216" width="8.88997" height="8.88997" rx="2" transform="rotate(-72.9106 122.724 42.2216)" fill="#00CEC4"/>
<rect x="275.165" y="199.624" width="8.88997" height="8.88997" rx="2" transform="rotate(-9.44362 275.165 199.624)" fill="#00CEC4"/>
<circle cx="231" cy="279" r="5" fill="#22D9A5"/>
<circle cx="68" cy="93" r="5" fill="#22D9A5"/>
<g opacity="0.5">
<rect x="238" y="51" width="2" height="10" rx="1" transform="rotate(-90 238 51)" fill="#E5E5E5"/>
<rect x="238" y="51" width="2" height="10" rx="1" transform="rotate(-90 238 51)" fill="#63C2FB"/>
<rect x="244" y="55" width="2" height="10" rx="1" transform="rotate(-180 244 55)" fill="#E5E5E5"/>
<rect x="244" y="55" width="2" height="10" rx="1" transform="rotate(-180 244 55)" fill="#63C2FB"/>
</g>
<g opacity="0.5">
<rect x="152.651" y="287.542" width="2" height="10" rx="1" transform="rotate(-140.819 152.651 287.542)" fill="#E5E5E5"/>
<rect x="152.651" y="287.542" width="2" height="10" rx="1" transform="rotate(-140.819 152.651 287.542)" fill="#63C2FB"/>
<rect x="159.542" y="285.418" width="2" height="10" rx="1" transform="rotate(129.181 159.542 285.418)" fill="#E5E5E5"/>
<rect x="159.542" y="285.418" width="2" height="10" rx="1" transform="rotate(129.181 159.542 285.418)" fill="#63C2FB"/>
</g>
<g opacity="0.5">
<rect x="39.6509" y="126.542" width="2" height="10" rx="1" transform="rotate(-140.819 39.6509 126.542)" fill="#E5E5E5"/>
<rect x="39.6509" y="126.542" width="2" height="10" rx="1" transform="rotate(-140.819 39.6509 126.542)" fill="#63C2FB"/>
<rect x="46.5422" y="124.418" width="2" height="10" rx="1" transform="rotate(129.181 46.5422 124.418)" fill="#E5E5E5"/>
<rect x="46.5422" y="124.418" width="2" height="10" rx="1" transform="rotate(129.181 46.5422 124.418)" fill="#63C2FB"/>
</g>
</g>
<defs>
<filter id="filter0_d" x="57" y="7.4425" width="242.415" height="311.389" filterUnits="userSpaceOnUse" color-interpolation-filters="sRGB">
<feFlood flood-opacity="0" result="BackgroundImageFix"/>
<feColorMatrix in="SourceAlpha" type="matrix" values="0 0 0 0 0 0 0 0 0 0 0 0 0 0 0 0 0 0 127 0"/>
<feOffset/>
<feGaussianBlur stdDeviation="30"/>
<feColorMatrix type="matrix" values="0 0 0 0 0.821562 0 0 0 0 0.821562 0 0 0 0 0.821562 0 0 0 0.5 0"/>
<feBlend mode="normal" in2="BackgroundImageFix" result="effect1_dropShadow"/>
<feBlend mode="normal" in="SourceGraphic" in2="effect1_dropShadow" result="shape"/>
</filter>
<linearGradient id="paint0_linear" x1="117" y1="258.831" x2="215.283" y2="237.768" gradientUnits="userSpaceOnUse">
<stop stop-color="#26DBA3"/>
<stop offset="1" stop-color="#00CEC4"/>
</linearGradient>
</defs>
</svg>
