<svg width="1043" height="148" viewBox="0 0 1043 148" fill="none" xmlns="http://www.w3.org/2000/svg">
<path d="M18.8 147.2C14 147.2 9.73333 146 6 143.6C2.26667 141.067 0.4 137.733 0.4 133.6C0.4 130.667 1.26667 128.267 3 126.4C4.86667 124.4 7.26667 123.333 10.2 123.2C13.5333 122.933 16 123.867 17.6 126C19.2 128 20 130 20 132C20 134.267 19.3333 136.067 18 137.4C19.0667 138.467 20.2 139 21.4 139C23.6667 139 26.2667 137.067 29.2 133.2C32.2667 129.333 35.2 123.4 38 115.4C40.8 107.4 43.1333 97.3333 45 85.2C46.8667 72.9333 47.8 58.4667 47.8 41.8V12H43.6L29 12.8V3.99999H128V10.6C123.067 10.7333 119.6 11.8667 117.6 14C115.733 16.1333 114.667 19 114.4 22.6C114.267 26.2 114.2 30.4 114.2 35.2V120.2C114.2 127.267 114 132.533 113.6 136C116 135.867 118.4 135.733 120.8 135.6C123.2 135.467 125.6 135.333 128 135.2V144H82.8V137.4C87.8667 137.133 91.3333 136 93.2 134C95.2 131.867 96.2667 129 96.4 125.4C96.6667 121.667 96.8 117.467 96.8 112.8V11.8L68.6 12C63.8 12 60.8 13.3333 59.6 16C58.4 18.5333 57.6667 22.4 57.4 27.6C57.4 39.3333 57 50.9333 56.2 62.4C55.4 73.8667 54.1333 84.7333 52.4 95C50.6667 105.133 48.3333 114.133 45.4 122C42.4667 129.867 38.8 136.067 34.4 140.6C30 145 24.8 147.2 18.8 147.2ZM228.839 144V137.4C232.839 137.4 235.906 136.333 238.039 134.2C240.172 132.067 241.906 129.133 243.239 125.4C244.706 121.667 246.372 117.333 248.239 112.4L289.439 0.199992H294.239L338.839 114C339.906 116.8 341.106 120.4 342.439 124.8C343.772 129.2 344.306 132.933 344.039 136C346.306 135.867 348.572 135.733 350.839 135.6C353.106 135.467 355.372 135.333 357.639 135.2V144H311.839V137.4C316.906 137.267 320.239 136.133 321.839 134C323.439 131.867 324.039 129.333 323.639 126.4C323.239 123.467 322.572 120.8 321.639 118.4L314.639 99.6L262.639 100.8L255.639 122.2C254.706 125.4 253.839 127.933 253.039 129.8C252.372 131.667 251.572 133.733 250.639 136C253.306 135.867 255.906 135.733 258.439 135.6C261.106 135.467 263.706 135.333 266.239 135.2V144H228.839ZM265.639 92.2H311.839L297.639 54C296.172 49.8667 294.639 45.8 293.039 41.8C291.572 37.6667 290.106 33.5333 288.639 29.4H288.239C286.906 33.1333 285.506 36.8667 284.039 40.6C282.706 44.3333 281.306 48.1333 279.839 52L265.639 92.2ZM457.234 144V137.4C462.301 137.267 465.768 136.133 467.634 134C469.501 131.733 470.501 128.733 470.634 125C470.901 121.133 471.034 116.733 471.034 111.8V27.8C471.034 20.6 471.234 15.3333 471.634 12C469.234 12.1333 466.834 12.2667 464.434 12.4C462.034 12.5333 459.634 12.6667 457.234 12.8V3.99999C464.568 3.86666 471.901 3.79999 479.234 3.79999C486.701 3.66666 494.434 3.6 502.434 3.6C517.901 3.6 529.968 6.33333 538.634 11.8C547.434 17.2667 551.701 25.9333 551.434 37.8C551.434 42.0667 550.168 46.3333 547.634 50.6C545.234 54.8667 541.568 58.6667 536.634 62C531.834 65.2 525.768 67.4667 518.434 68.8V69.2C533.101 69.2 544.168 72.6 551.634 79.4C559.101 86.0667 562.834 94.5333 562.834 104.8C562.834 112.933 560.768 119.933 556.634 125.8C552.501 131.667 546.901 136.2 539.834 139.4C532.768 142.467 524.701 144 515.634 144H457.234ZM488.434 67.4L503.034 67C510.634 66.8667 516.634 65.3333 521.034 62.4C525.434 59.3333 528.568 55.5333 530.434 51C532.434 46.4667 533.368 41.7333 533.234 36.8C533.101 29.6 531.434 24.1333 528.234 20.4C525.168 16.6667 521.368 14.1333 516.834 12.8C512.301 11.4667 507.834 10.8 503.434 10.8C496.901 10.8 492.768 12.2 491.034 15C489.301 17.8 488.434 22.8667 488.434 30.2V67.4ZM487.834 136C489.968 136.133 492.501 136.267 495.434 136.4C498.501 136.4 501.301 136.4 503.834 136.4C506.501 136.4 508.234 136.4 509.034 136.4C519.301 136.4 527.568 133.867 533.834 128.8C540.234 123.6 543.434 116 543.434 106C543.434 97.8667 541.834 91.5333 538.634 87C535.434 82.4667 531.234 79.2667 526.034 77.4C520.834 75.5333 515.168 74.6 509.034 74.6C505.034 74.6 501.368 74.6667 498.034 74.8C494.834 74.8 491.634 74.9333 488.434 75.2V120.4C488.434 127.333 488.234 132.533 487.834 136ZM672.648 137.4C677.715 137.133 681.182 136 683.048 134C684.915 131.867 685.915 129 686.048 125.4C686.315 121.667 686.448 117.467 686.448 112.8V26.4C686.448 20.8 686.648 16 687.048 12C684.648 12.1333 682.248 12.2667 679.848 12.4C677.448 12.5333 675.048 12.6667 672.648 12.8V3.99999C679.715 3.86666 686.982 3.79999 694.448 3.79999C701.915 3.66666 709.515 3.6 717.248 3.6C736.582 3.6 751.315 6.86666 761.448 13.4C771.715 19.9333 777.115 29.6 777.648 42.4C777.915 47.6 777.115 53.0667 775.248 58.8C773.515 64.4 770.182 69.7333 765.248 74.8C760.448 79.7333 753.648 83.7333 744.848 86.8C736.048 89.8667 724.782 91.4 711.048 91.4C710.515 91.4 709.515 91.4 708.048 91.4C706.582 91.4 705.182 91.3333 703.848 91.2V120.2C703.848 127.267 703.648 132.533 703.248 136C706.315 135.733 709.382 135.533 712.448 135.4C715.515 135.267 718.582 135.133 721.648 135V144H672.648V137.4ZM703.848 83C706.382 83.2667 708.515 83.4667 710.248 83.6C712.115 83.6 714.315 83.6 716.848 83.6C724.448 83.6 731.382 82.1333 737.648 79.2C743.915 76.1333 748.915 71.8 752.648 66.2C756.382 60.6 758.248 53.9333 758.248 46.2C758.248 37.8 756.448 31.0667 752.848 26C749.382 20.8 744.515 17.0667 738.248 14.8C732.115 12.5333 724.982 11.4 716.848 11.4C712.182 11.4 708.915 12.4 707.048 14.4C705.315 16.4 704.315 19.2 704.048 22.8C703.915 26.2667 703.848 30.4 703.848 35.2V83ZM884.938 144V137.4C889.871 137.267 893.271 136.2 895.138 134.2C897.004 132.067 898.071 129.2 898.338 125.6C898.604 121.867 898.738 117.6 898.738 112.8V26.4C898.738 20.8 898.938 16 899.338 12C896.938 12.1333 894.538 12.2667 892.138 12.4C889.738 12.5333 887.338 12.6667 884.938 12.8V3.99999H929.938V10.6C925.004 10.7333 921.538 11.8667 919.538 14C917.671 16.1333 916.604 19 916.338 22.6C916.204 26.2 916.138 30.4 916.138 35.2V62.6L932.338 62C946.071 61.6 956.938 63.0667 964.938 66.4C972.938 69.7333 978.671 74.4667 982.138 80.6C985.738 86.6 987.538 93.5333 987.538 101.4C987.538 110.733 985.538 118.6 981.538 125C977.538 131.267 972.204 136 965.538 139.2C958.871 142.4 951.471 144 943.338 144H884.938ZM997.738 144V137.4C1002.8 137.133 1006.27 136 1008.14 134C1010 131.867 1011 129 1011.14 125.4C1011.4 121.667 1011.54 117.467 1011.54 112.8V26.4C1011.54 23.7333 1011.54 21.2 1011.54 18.8C1011.67 16.2667 1011.87 14 1012.14 12C1009.74 12.1333 1007.34 12.2667 1004.94 12.4C1002.54 12.5333 1000.14 12.6667 997.738 12.8V3.99999H1042.74V10.6C1037.8 10.7333 1034.34 11.8667 1032.34 14C1030.47 16.1333 1029.4 19 1029.14 22.6C1029 26.2 1028.94 30.4 1028.94 35.2V120.2C1028.94 123.8 1028.87 126.933 1028.74 129.6C1028.6 132.133 1028.4 134.267 1028.14 136C1030.54 135.867 1032.94 135.733 1035.34 135.6C1037.87 135.467 1040.34 135.333 1042.74 135.2V144H997.738ZM915.538 136C917.671 136.133 920.204 136.267 923.138 136.4C926.204 136.4 929.004 136.4 931.538 136.4C934.204 136.4 935.938 136.4 936.738 136.4C942.604 136.4 947.938 135.2 952.738 132.8C957.538 130.4 961.338 126.667 964.138 121.6C966.938 116.533 968.338 110.067 968.338 102.2C968.338 93.6667 966.738 87.0667 963.538 82.4C960.471 77.7333 956.538 74.4667 951.738 72.6C946.938 70.6 941.938 69.6 936.738 69.6C932.738 69.6 929.071 69.6667 925.738 69.8C922.538 69.8 919.338 69.9333 916.138 70.2C916.138 83.1333 916.138 93.6667 916.138 101.8C916.138 109.8 916.071 116.067 915.938 120.6C915.938 125 915.871 128.333 915.738 130.6C915.738 132.867 915.671 134.667 915.538 136Z" fill="black"/>
</svg>
