<svg width="256" height="146" viewBox="0 0 256 146" fill="none" xmlns="http://www.w3.org/2000/svg">
<path fill-rule="evenodd" clip-rule="evenodd" d="M127.92 0C57.2986 0 0 32.3469 0 72.2221C0 112.097 57.226 144.444 127.92 144.444C198.614 144.444 255.84 112.097 255.84 72.2221C255.84 32.3469 198.541 0 127.92 0ZM127.92 140.388C59.5189 140.388 4.07895 109.863 4.07895 72.2221C4.07895 34.5811 59.5915 4.05547 127.92 4.05547C196.249 4.05547 251.883 34.5568 251.883 72.2221C251.883 109.887 196.369 140.486 127.92 140.486V140.388Z" fill="#C2A271"/>
<path fill-rule="evenodd" clip-rule="evenodd" d="M176.819 13.648C208.534 21.249 232.934 36.0139 242.88 54.0815H200.279C190.094 36.2082 167.261 25.7417 154.735 22.9246L176.819 13.648ZM242.88 90.3625C228.254 116.93 182.322 136.357 127.92 136.357C122.852 136.357 117.855 136.188 112.932 135.847C166.199 123.948 190.963 106.002 200.448 90.3625H242.88Z" fill="#C2A271"/>
<path fill-rule="evenodd" clip-rule="evenodd" d="M111.894 119.455L134.002 109.887C113.921 110.567 103.084 101.873 99.3671 90.4595H60.7498C68.8594 103.986 86.8888 115.011 111.821 119.601L111.894 119.455ZM107.332 54.0813C118.603 37.9321 139.867 22.1717 170.64 12.2878L158.572 10.2236C105.208 19.0631 74.99 36.0623 62.6806 54.0813H107.332Z" fill="#1B77A1"/>
<path fill-rule="evenodd" clip-rule="evenodd" d="M148.991 25.7171C143.729 28.777 137.961 32.3226 131.468 36.5724C137.987 41.9388 144.094 47.7916 149.739 54.0813H195.307C187.294 41.3807 170.785 30.8898 148.991 25.7171ZM158.018 90.3624C151.452 108.721 127.099 119.795 88.6268 132.884L100.381 134.657C153.649 124.774 182.95 107.944 194.511 90.3624H158.018Z" fill="#AD906B"/>
<path d="M26.0667 81.2802C24.3545 82.0873 22.4778 82.4783 20.5877 82.4218C19.3322 82.4794 18.0788 82.2688 16.9099 81.8042C15.741 81.3397 14.683 80.6315 13.8056 79.7261C12.9337 78.7782 12.2583 77.6653 11.8191 76.4521C11.3798 75.2386 11.1853 73.9492 11.2472 72.6592C11.1851 71.2623 11.4079 69.8671 11.9018 68.5598C12.3958 67.2527 13.1505 66.061 14.1193 65.0583C15.0637 64.0996 16.1937 63.3463 17.4392 62.8452C18.6847 62.3439 20.0192 62.1054 21.3601 62.144C22.9603 62.099 24.5529 62.3799 26.0426 62.9698V66.1995C24.734 65.4007 23.2285 64.9884 21.698 65.0097C20.747 64.969 19.798 65.1296 18.9125 65.481C18.027 65.8323 17.2246 66.3667 16.5571 67.0496C15.8908 67.7818 15.3751 68.6394 15.0396 69.5729C14.7041 70.5065 14.5554 71.4976 14.6021 72.4894C14.5533 73.4306 14.6903 74.3723 15.0051 75.2602C15.32 76.1478 15.8065 76.9643 16.4364 77.6619C17.0622 78.3046 17.8154 78.8075 18.647 79.1379C19.4787 79.4686 20.3703 79.6192 21.2636 79.5804C22.9659 79.6314 24.6454 79.1753 26.0908 78.269V81.2802H26.0667ZM44.8684 62.4841L38.8103 76.0591C38.0692 77.9443 36.9614 79.6617 35.5519 81.1102C34.6017 81.9447 33.3861 82.41 32.1247 82.4218C31.3012 82.4442 30.4812 82.3038 29.7113 82.0087V78.9005C30.3862 79.3489 31.1715 79.6009 31.9798 79.629C32.6478 79.6109 33.2848 79.3423 33.7659 78.8762C34.4848 78.1133 35.0721 77.235 35.5037 76.2778L28.9872 62.4841H32.6798L36.7105 71.7852C36.7105 71.9793 36.9277 72.4407 37.169 73.2177C37.169 73.2177 37.3864 72.6351 37.7002 71.7852L41.4894 62.4841H44.8684ZM51.3369 74.9907V82.2031H48.1027V62.6054H53.9677C55.8367 62.4907 57.6852 63.0505 59.1809 64.1841C59.8002 64.7322 60.2873 65.415 60.6051 66.1809C60.923 66.9468 61.0631 67.7754 61.0154 68.6037C61.0484 69.479 60.8931 70.3509 60.5599 71.1599C60.2265 71.9689 59.7232 72.6959 59.0845 73.2907C57.649 74.4725 55.8175 75.0547 53.9677 74.9178L51.3369 74.9907ZM51.3369 65.2768V72.4407H53.4126C54.5573 72.5229 55.6916 72.1771 56.5985 71.4694C56.9684 71.1251 57.2577 70.7025 57.4454 70.2321C57.6332 69.7619 57.7149 69.2555 57.6846 68.7494C57.6846 66.4425 56.3329 65.2768 53.678 65.2768H51.3369ZM76.1486 65.4225H68.594V82.2031H65.3597V62.6054H76.1486V65.2041V65.4225ZM93.454 62.6054L87.3957 76.1805C86.6546 78.0657 85.547 79.783 84.1375 81.2316C83.1884 82.0681 81.972 82.5335 80.7103 82.5431C79.8866 82.5655 79.0666 82.4252 78.2966 82.1301V79.0219C79.0132 79.4965 79.8523 79.7498 80.7103 79.7504C81.3706 79.731 81.9997 79.4622 82.4722 78.9976C83.1909 78.2347 83.7785 77.3564 84.21 76.3991L77.7174 62.6054H81.3859L85.4169 71.9066C85.4169 72.1007 85.6579 72.5621 85.8994 73.3391C85.8994 73.3391 86.0925 72.7565 86.4063 71.9066L90.1955 62.6054H93.454ZM108.732 65.3739H103.132V82.2031H99.8258V65.2041H94.2262V62.4354H108.708V65.2041L108.732 65.3739ZM128.21 82.2031H124.951V73.7035H115.78V82.2031H112.57V62.6054H115.78V70.838H124.951V62.6054H128.21V82.2031ZM144.936 82.2031H134.002V62.6054H144.501V65.2041H137.26V70.7409H143.946V73.5091H137.236V79.289H144.936V82.2031ZM159.417 79.7747V82.2031H156.304V79.7747H155.942C154.9 79.8133 153.861 79.6324 152.892 79.2433C151.924 78.8544 151.047 78.2662 150.318 77.5162C149.594 76.7883 149.024 75.92 148.642 74.9643C148.26 74.0085 148.075 72.985 148.098 71.9552C148.079 70.9626 148.262 69.9767 148.635 69.0579C149.009 68.1393 149.565 67.3071 150.27 66.6125C150.999 65.8957 151.864 65.3348 152.814 64.9634C153.764 64.592 154.778 64.4177 155.797 64.4512H156.304V62.0226H159.393V64.4512H159.803C160.835 64.4083 161.866 64.5754 162.832 64.9427C163.798 65.3099 164.681 65.8697 165.427 66.5882C166.135 67.2858 166.693 68.1218 167.066 69.0449C167.44 69.968 167.621 70.9585 167.599 71.9552C167.612 72.9918 167.418 74.0207 167.028 74.9801C166.637 75.9396 166.059 76.8102 165.327 77.5398C164.595 78.2697 163.724 78.8435 162.767 79.2275C161.81 79.6115 160.785 79.7976 159.755 79.7747H159.417ZM159.417 66.9766V77.1761H159.731C160.352 77.2036 160.971 77.0916 161.543 76.8478C162.114 76.6042 162.625 76.2351 163.038 75.7677C163.899 74.711 164.338 73.3688 164.268 72.0036C164.332 70.6763 163.892 69.3745 163.038 68.361C162.614 67.9025 162.097 67.5415 161.522 67.3028C160.948 67.0639 160.328 66.9525 159.707 66.9766H159.417ZM156.328 77.1761V66.9766H156.038C155.418 66.9559 154.802 67.0711 154.231 67.3146C153.66 67.5578 153.148 67.923 152.732 68.3853C151.868 69.3852 151.419 70.6803 151.477 72.0036C151.404 73.369 151.844 74.7121 152.707 75.7677C153.121 76.2338 153.632 76.602 154.204 76.8454C154.775 77.0891 155.394 77.2019 156.014 77.1761H156.328ZM182.346 65.2041H176.747V82.2031H173.513V65.2041H167.937V62.4354H182.419V65.2041H182.346ZM197.117 82.0331H186.184V62.4354H196.683V65.2041H189.442V70.7409H196.128V73.5091H189.442V79.289H197.142V82.2031L197.117 82.0331ZM212.347 65.2525H204.793V82.2031H201.559V62.6054H212.347V65.2041V65.2525ZM229.436 82.2031H225.888L224.126 77.2247H216.474L214.784 82.2031H211.237L218.477 62.6054H222.123L229.363 82.2031H229.436ZM223.281 74.5777L220.506 66.6368C220.386 66.2313 220.296 65.8172 220.239 65.3982C220.164 65.8159 220.068 66.2293 219.951 66.6368L217.271 74.4563L223.281 74.5777ZM231.825 81.4502V78.3418C233.348 79.4242 235.172 79.994 237.039 79.9689C238.131 80.028 239.213 79.7111 240.104 79.0705C240.474 78.7881 240.77 78.4196 240.968 77.9968C241.165 77.5738 241.259 77.1089 241.237 76.6419C241.237 74.4563 239.693 73.3634 236.627 73.3634H234.383V70.8137H236.482C237.555 70.8777 238.62 70.5969 239.524 70.0122C239.891 69.7308 240.181 69.3604 240.367 68.9357C240.552 68.5109 240.627 68.0459 240.587 67.5838C240.614 67.1927 240.548 66.8009 240.392 66.4414C240.237 66.0819 239.996 65.7655 239.693 65.5196C238.999 64.9914 238.148 64.7172 237.28 64.7426C235.599 64.7573 233.963 65.2727 232.574 66.2238V63.3097C234.182 62.4992 235.964 62.0911 237.762 62.1197C239.415 62.0265 241.052 62.5065 242.396 63.4797C242.931 63.8931 243.364 64.4269 243.656 65.0383C243.951 65.6499 244.098 66.3221 244.085 67.001C244.168 68.1361 243.829 69.2617 243.134 70.1594C242.438 71.0569 241.436 71.6621 240.32 71.8579C241.53 71.952 242.662 72.4875 243.507 73.3634C244.305 74.2057 244.74 75.3325 244.712 76.4962C244.74 77.321 244.574 78.1406 244.226 78.8877C243.876 79.6348 243.358 80.2884 242.709 80.7945C241.128 81.9411 239.202 82.5069 237.256 82.3974C235.413 82.5001 233.576 82.1237 231.921 81.3045L231.825 81.4502Z" fill="#1B77A1"/>
<path d="M146.167 8.79097C75.5935 4.0555 27.9009 28.2184 12.9609 54.0815H57.3226C69.656 34.7996 98.1121 18.1891 146.167 8.79097Z" fill="#008EB9"/>
<path d="M55.8986 90.3868H12.9368C28.2389 114.113 53.2678 124.385 80.9032 131.233L105.594 122.029C85.3444 116.663 66.6389 109.28 55.8986 90.3868Z" fill="#008EB9"/>
</svg>
