<svg width="256" height="256" viewBox="0 0 256 256" fill="none" xmlns="http://www.w3.org/2000/svg">
<g clip-path="url(#clip0)">
<path d="M53.9254 94.7465C58.8321 94.7465 62.9174 90.5865 62.9174 85.5998C62.9174 80.6132 58.8321 76.4585 53.9254 76.4585C49.0241 76.4585 44.9387 80.6185 44.9387 85.5998C44.9387 90.5865 49.0241 94.7465 53.9254 94.7465Z" fill="#1C1C1A"/>
<path d="M97.2533 0C58.0267 0 22.88 18.288 0 46.544C6.53867 47.376 12.256 49.872 17.1627 52.3627C17.1627 52.3627 159.36 72.3093 206.763 104.725C194.501 103.899 182.245 103.899 169.984 103.899C155.275 103.899 140.565 105.557 125.04 107.221C110.325 108.885 95.616 112.208 80.9067 113.035C73.5467 113.872 66.1973 113.872 58.8427 113.872C51.4827 113.872 44.1333 113.872 36.7733 112.208C44.1333 114.699 51.488 114.699 58.8427 115.531C66.1973 116.363 73.552 116.363 80.9067 115.531C88.2667 115.531 95.616 114.704 102.971 114.704C110.331 113.872 117.68 113.04 125.04 113.04C139.738 112.209 154.47 112.209 169.168 113.04C178.16 113.872 187.963 114.699 196.955 115.531C162.629 127.168 76.0053 157.92 46.5813 186.181C36.7733 201.973 30.24 212.779 34.3253 239.376C53.12 250.181 74.368 256.832 97.2533 256.832C166.715 256.832 223.104 199.483 223.104 128.832C223.104 57.3493 166.72 0 97.2533 0Z" fill="#137A3A"/>
</g>
<defs>
<clipPath id="clip0">
<rect width="256" height="256" fill="white"/>
</clipPath>
</defs>
</svg>
