<svg width="256" height="196" viewBox="0 0 256 196" fill="none" xmlns="http://www.w3.org/2000/svg">
<path d="M230.518 180.084H15.8896V186.263H143.787C144.237 189.046 146.964 191.188 150.261 191.188C153.558 191.188 156.284 189.048 156.734 186.263H230.509L230.518 180.084V180.084ZM225.391 175.496H20.3574V179.024H225.391V175.496ZM26.2142 169.888C26.2142 169.888 37.2957 155.722 72.2497 153.861C97.9232 152.491 118.597 161.779 127.757 166.81C130.768 168.461 133.526 170.536 135.949 172.969L137.251 174.278H22.5546L26.2142 169.888V169.888ZM158.609 174.276H222.609C222.609 174.276 219.314 168.007 197.712 168.099C179.77 168.172 158.609 174.276 158.609 174.276Z" fill="#FCFCFC"/>
<path d="M132.67 165.43C131.944 164.651 131.194 163.895 130.42 163.163C130.041 162.794 129.641 162.438 129.247 162.075C128.855 161.712 128.445 161.369 128.038 161.024C127.63 160.679 127.223 160.334 126.805 160C126.386 159.666 125.97 159.332 125.542 159.012C122.13 156.401 118.477 154.118 114.635 152.195C110.761 150.265 106.716 148.699 102.551 147.518L100.984 147.087L99.4037 146.708L98.609 146.517C98.3441 146.454 98.0769 146.405 97.812 146.35L96.2137 146.029C95.948 145.975 95.6807 145.928 95.4123 145.889L94.6087 145.76C94.07 145.675 93.5357 145.584 92.997 145.506L91.3786 145.317C90.8377 145.25 90.299 145.177 89.7558 145.139L88.1308 145.01C87.8614 144.99 87.5854 144.965 87.3182 144.95L86.5169 144.918L83.3002 144.792L81.6907 144.734H80.0812L76.8668 144.763C72.5615 144.874 68.2674 145.235 64.0022 145.838C63.4679 145.909 62.9337 145.98 62.3994 146.063L60.8055 146.35L59.2139 146.639C58.9468 146.688 58.6796 146.728 58.417 146.786L57.6245 146.96L56.0395 147.305C55.5119 147.427 54.9799 147.527 54.459 147.67L52.8829 148.082L52.0993 148.289C50.1125 148.845 48.145 149.468 46.2002 150.156C48.1244 146.623 50.0285 143.079 51.9123 139.525C52.9363 137.583 53.9603 135.633 54.9799 133.686C55.9994 131.736 56.9967 129.777 58.0074 127.82C59.0158 125.865 59.9975 123.897 60.9747 121.932C62.9337 117.992 64.8682 114.031 66.7047 110.018C64.1444 113.603 61.6435 117.229 59.2028 120.897C57.974 122.722 56.7719 124.563 55.5564 126.406C54.3465 128.243 53.1481 130.088 51.9613 131.94C50.7748 133.79 49.5616 135.618 48.3996 137.479C47.2398 139.338 46.0466 141.192 44.8913 143.06C42.5612 146.785 40.2579 150.527 37.9815 154.286L33.3779 161.848L41.4853 157.883L41.7614 157.75L42.0775 157.594L42.752 157.291C42.9746 157.186 43.2017 157.1 43.4332 156.997L44.1232 156.712C45.056 156.347 45.9932 155.984 46.9615 155.666C47.4401 155.51 47.9054 155.323 48.3973 155.178L49.8487 154.722C50.3296 154.562 50.8238 154.433 51.3135 154.295L52.785 153.883C53.7689 153.622 54.7662 153.404 55.7546 153.153C56.2465 153.019 56.7518 152.93 57.2505 152.819L58.7486 152.503L59.5055 152.342C59.7548 152.291 60.0086 152.253 60.2624 152.209L61.7761 151.946L63.2899 151.683L64.8125 151.472C68.864 150.831 72.9667 150.553 77.0693 150.297L80.1569 150.208L81.7018 150.154H83.2467L86.341 150.165H87.1157C87.3717 150.165 87.6232 150.188 87.8725 150.196L89.3863 150.257C97.5605 150.664 105.617 152.371 113.257 155.321C118.088 157.193 122.728 159.524 127.114 162.282C127.557 162.562 127.991 162.854 128.439 163.132C128.884 163.413 129.309 163.702 129.739 164.012C131.475 165.198 133.144 166.478 134.745 167.845C134.087 167.012 133.395 166.206 132.67 165.43V165.43Z" fill="#FCFCFC"/>
<path d="M122.506 150.477C120.13 148.214 117.563 146.16 114.835 144.337C114.154 143.874 113.453 143.442 112.754 143.008C112.402 142.795 112.041 142.59 111.685 142.38C111.328 142.173 110.967 141.971 110.603 141.775C110.24 141.579 109.882 141.374 109.512 141.187L108.404 140.617C108.025 140.426 107.647 140.263 107.28 140.088C103.884 138.503 100.325 137.296 96.6656 136.49C90.181 135.021 83.5117 134.66 76.9425 135.043C73.6586 135.236 70.3883 135.615 67.1477 136.181C65.5316 136.468 63.9221 136.809 62.3216 137.183L61.7539 137.325C62.2815 136.121 62.8113 134.914 63.3278 133.703C64.9884 129.849 66.6032 125.975 68.1717 122.083C68.6904 120.781 69.2091 119.481 69.7211 118.176C70.7406 115.565 71.729 112.94 72.664 110.289C70.4489 113.864 68.3114 117.486 66.2528 121.152C65.5694 122.37 64.8548 123.59 64.1737 124.805C62.8174 127.254 61.478 129.712 60.1556 132.178C59.49 133.407 58.8422 134.649 58.1922 135.883C57.5399 137.118 56.8877 138.353 56.2488 139.6L54.1919 143.611L58.7042 142.452L59.234 142.316L59.8016 142.18C60.1801 142.091 60.5585 142.002 60.9369 141.922C63.2288 141.42 65.539 141.006 67.8623 140.68C69.4125 140.456 70.9674 140.266 72.526 140.11C73.3029 140.032 74.082 139.97 74.8611 139.903C75.6402 139.836 76.4194 139.789 77.2007 139.751C80.315 139.584 83.4338 139.58 86.5503 139.74C89.6512 139.889 92.741 140.237 95.7997 140.78C101.877 141.831 107.767 143.965 113.328 146.882C116.124 148.354 118.823 150.004 121.409 151.821C122.711 152.734 123.986 153.691 125.237 154.686C125.549 154.94 125.861 155.189 126.17 155.448C126.475 155.706 126.787 155.96 127.092 156.218C127.702 156.741 128.303 157.28 128.89 157.834C127.065 155.163 124.866 152.73 122.506 150.477V150.477Z" fill="#FCFCFC"/>
<path d="M121.362 142.189C119.545 140.356 117.615 138.639 115.583 137.047L114.826 136.457L114.042 135.887C113.784 135.698 113.519 135.509 113.252 135.317C112.985 135.128 112.722 134.939 112.451 134.761C111.91 134.409 111.371 134.042 110.815 133.703L109.984 133.189L109.138 132.699C106.864 131.384 104.479 130.269 102.013 129.365C101.705 129.244 101.389 129.142 101.066 129.04L100.12 128.728L99.1743 128.454C98.8538 128.363 98.5354 128.265 98.2282 128.198L96.3272 127.753C96.0088 127.686 95.6949 127.597 95.3811 127.539L94.4194 127.361L93.46 127.187C93.1372 127.134 92.8188 127.063 92.4938 127.025L90.5571 126.769C89.9116 126.673 89.2571 126.631 88.6071 126.58C87.9571 126.526 87.307 126.468 86.6548 126.453C86.0026 126.44 85.3503 126.393 84.6958 126.388L82.7391 126.411L80.7757 126.515C80.1257 126.56 79.4712 126.633 78.8234 126.691C78.1756 126.749 77.5234 126.851 76.8756 126.945C76.2256 127.034 75.5845 127.154 74.9389 127.297C74.4714 127.39 74.0062 127.488 73.5431 127.608L74.0062 126.152C74.4135 124.823 74.8232 123.503 75.2172 122.177C76.0074 119.516 76.7665 116.841 77.4321 114.131C76.1233 116.583 74.8763 119.068 73.6923 121.582C73.0935 122.835 72.5125 124.093 71.9292 125.351C71.3457 126.605 70.778 127.867 70.2263 129.135L69.1733 131.535L71.8847 130.903L72.2854 130.812L72.7217 130.722C73.0111 130.662 73.3139 130.618 73.6099 130.564C74.211 130.469 74.8098 130.375 75.4175 130.308C76.023 130.242 76.633 130.19 77.2407 130.117C77.8484 130.046 78.4628 130.032 79.0705 129.999C79.6805 129.968 80.2949 129.961 80.907 129.95H82.7458L84.5845 130.017C85.1967 130.039 85.8089 130.095 86.4211 130.13C88.8698 130.311 91.3051 130.629 93.7182 131.081L94.6242 131.241C94.9292 131.29 95.2252 131.37 95.528 131.43L97.3289 131.831C97.6316 131.898 97.921 131.971 98.2126 132.047L99.092 132.274L99.9601 132.535C102.587 133.344 105.148 134.356 107.618 135.562C109.845 136.646 112.015 137.843 114.12 139.148C116.789 140.796 119.378 142.572 121.876 144.469C122.379 144.849 122.882 145.23 123.39 145.626C124.387 146.405 125.38 147.198 126.35 148.028C124.847 145.951 123.179 143.998 121.362 142.189V142.189ZM204.43 142.917C205.577 144.691 206.679 146.49 207.77 148.293C208.86 150.096 209.92 151.915 210.971 153.742C211.494 154.655 212.019 155.566 212.533 156.481C213.05 157.4 213.568 158.315 214.078 159.236C215.102 161.073 216.113 162.918 217.106 164.77L218.428 167.215L215.657 166.645C215.185 166.546 214.711 166.457 214.236 166.378C213.762 166.3 213.275 166.213 212.789 166.137C210.854 165.82 208.911 165.553 206.961 165.336C205.984 165.225 205.011 165.129 204.034 165.038C200.132 164.671 196.213 164.502 192.294 164.532C191.314 164.548 190.335 164.555 189.36 164.61C188.383 164.661 187.405 164.713 186.43 164.773C184.478 164.929 182.532 165.151 180.593 165.443C178.655 165.732 176.738 166.155 174.828 166.645C172.913 167.166 171.03 167.787 169.183 168.508C170.877 167.426 172.659 166.488 174.51 165.703C176.379 164.94 178.294 164.294 180.244 163.771C182.203 163.27 184.184 162.874 186.183 162.569C187.185 162.44 188.187 162.293 189.191 162.202C190.197 162.113 191.201 162.035 192.218 161.963C196.246 161.755 200.283 161.834 204.299 162.202C205.301 162.288 206.303 162.393 207.302 162.524C208.302 162.653 209.299 162.78 210.292 162.936C211.287 163.092 212.282 163.263 213.272 163.453C213.767 163.548 214.261 163.642 214.755 163.755C215.249 163.871 215.737 163.969 216.255 164.096L214.802 165.97C213.879 164.077 212.97 162.177 212.073 160.272C211.621 159.321 211.178 158.37 210.737 157.422C210.292 156.472 209.855 155.508 209.41 154.551C208.54 152.632 207.687 150.706 206.85 148.769C206.012 146.832 205.205 144.881 204.43 142.917V142.917Z" fill="#FCFCFC"/>
<path d="M203.865 148.932C204.735 150.439 205.568 151.968 206.363 153.516C206.763 154.284 207.151 155.058 207.536 155.835C207.919 156.614 208.293 157.393 208.671 158.173L209.459 159.8L207.545 159.502C207.166 159.444 206.739 159.386 206.329 159.337L205.094 159.19C204.266 159.096 203.435 159.027 202.61 158.95C200.953 158.808 199.293 158.705 197.632 158.638C195.564 158.553 193.493 158.543 191.423 158.607C191.012 158.62 190.598 158.625 190.186 158.651L188.95 158.714L187.715 158.803C186.073 158.935 184.435 159.124 182.806 159.37C181.181 159.617 179.57 159.967 177.971 160.381C176.372 160.81 174.797 161.328 173.254 161.93C171.7 162.576 170.184 163.31 168.713 164.127C169.928 162.904 171.274 161.817 172.727 160.886C174.206 159.974 175.757 159.184 177.366 158.527C178.984 157.894 180.642 157.369 182.332 156.959C184.021 156.563 185.731 156.263 187.454 156.06C190.888 155.675 194.35 155.618 197.794 155.889C199.082 155.983 200.365 156.121 201.643 156.3L202.917 156.492C204.623 156.766 206.314 157.127 207.983 157.574L206.861 158.905C206.588 158.081 206.312 157.26 206.049 156.434C205.786 155.608 205.523 154.782 205.27 153.952C204.762 152.29 204.293 150.616 203.863 148.932H203.865ZM207.378 63.3881H201.808L168.493 19.6477V10.9325H174.868V4.75069H168.493V4.69727H166.79V19.7278L135.94 63.3881H129.612V67.5041H134.834V82.6526C134.834 82.6526 104.86 91.7707 83.2824 96.2162V71.7693H85.0165V69.3339H83.2868L78.7924 61.5159V55.737H79.6516L76.3748 50.0382L73.098 55.737H73.9105V61.605L69.4628 69.3339H67.7332V71.7626H69.7099V99.5152C69.7099 99.5152 93.6404 98.5357 103.297 102.164C112.958 105.793 136.884 115.594 151.726 142.948C151.726 142.948 162.268 120.888 202.102 128.537V67.5041H207.378V63.3858V63.3881ZM164.833 87.5745H158.965V78.4542C158.965 77.6751 159.277 76.9249 159.824 76.3728C160.234 75.9595 160.757 75.6777 161.328 75.5632C161.898 75.4488 162.49 75.507 163.027 75.7304C163.564 75.9537 164.023 76.3321 164.344 76.8173C164.665 77.3025 164.835 77.8724 164.831 78.4542V87.5745H164.833ZM187.9 87.4276H182.036V81.6242C182.036 80.845 182.343 80.0948 182.893 79.5428C183.165 79.2696 183.488 79.0528 183.844 78.9048C184.2 78.7569 184.581 78.6808 184.967 78.6808C185.352 78.6808 185.734 78.7569 186.089 78.9048C186.445 79.0528 186.768 79.2696 187.04 79.5428C187.59 80.0948 187.9 80.8428 187.9 81.6242V87.4276Z" fill="#FCFCFC"/>
</svg>
