<svg width="240" height="102" viewBox="0 0 240 102" fill="none" xmlns="http://www.w3.org/2000/svg">
    <path d="M181.49 1.24323C181.663 0.828819 181.756 0.372968 181.996 0C182.382 0.331528 182.741 0.718308 183.021 1.14653C184.219 3.05281 184.791 5.30444 185.031 7.54225C185.164 8.85455 185.231 10.1668 185.191 11.4791C185.111 12.598 185.111 13.7308 184.898 14.8497C185.603 14.007 186.282 13.1368 186.828 12.1698C188.479 9.35184 189.477 6.1747 190.09 2.95612C190.09 2.76273 190.21 2.69366 190.369 2.69366C190.662 3.20477 190.995 3.68824 191.248 4.22698C192.433 6.85157 192.792 9.78006 192.925 12.6533C193.005 15.3608 192.859 18.0683 192.499 20.7481C191.168 21.0106 189.85 21.3835 188.519 21.5907C189.278 21.6598 190.01 21.8532 190.755 21.9913C194.576 22.7925 198.357 23.8147 202.071 25.0718C205.266 26.1769 208.421 27.4477 211.39 29.1192C211.523 31.4675 212.455 33.7053 213.786 35.584C214.106 36.1089 214.545 36.5371 214.904 37.0344C215.37 37.656 215.929 38.1947 216.475 38.7473C217.367 39.5485 218.246 40.3773 219.204 41.1094C220.962 42.5046 222.812 43.7754 224.702 44.9634C225.102 45.2121 225.528 45.4193 225.847 45.7784C225.275 45.7508 224.742 45.5436 224.21 45.3916C220.296 44.3004 216.489 42.6427 213.214 40.1286C212.561 39.5623 211.856 39.065 211.27 38.4158C210.724 37.8218 210.125 37.2969 209.659 36.6338C208.714 35.4596 207.902 34.1888 207.276 32.8074C207.17 32.6002 207.077 32.3654 206.85 32.2825C205.572 31.7023 204.254 31.1774 202.936 30.7077C200.846 29.9618 198.703 29.3264 196.506 29.0639C195.348 28.912 194.123 28.9396 193.032 29.4231C192.526 29.6303 192.167 30.0585 191.794 30.4591C189.491 33.429 187.747 36.9239 187.041 40.6812C185.83 40.5569 184.605 40.4602 183.394 40.4602C181.889 40.3635 180.398 40.4602 178.894 40.474C176.977 40.5845 175.047 40.7364 173.143 41.0265C172.078 41.1647 171.026 41.4409 169.961 41.6067C171.812 41.7863 173.649 42.0349 175.473 42.4355C176.311 42.6151 177.137 42.8637 177.922 43.2367C178.148 43.3334 178.335 43.513 178.481 43.7202C177.243 43.8169 175.992 43.8998 174.767 44.1208C171.026 44.77 167.339 46.0823 164.25 48.4168C163.571 48.9279 162.972 49.5357 162.32 50.0883C162.653 49.9363 162.999 49.812 163.345 49.7153C165.155 49.149 167.019 48.6931 168.923 48.7207C168.417 50.0607 167.911 51.442 167.751 52.8786C167.538 54.3567 167.778 55.89 168.39 57.2299C168.923 58.3074 169.695 59.2605 170.614 60.0203C172.038 61.2221 173.715 62.0509 175.406 62.7416C175.792 62.9212 176.271 62.9626 176.578 63.3079C172.957 64.123 169.375 65.1452 165.914 66.5542C162.586 67.9079 159.364 69.5793 156.462 71.7619C155.77 72.2868 155.064 72.7979 154.452 73.4195C153.84 73.9306 153.321 74.5384 152.748 75.1048C151.736 76.1546 150.884 77.3564 150.152 78.6135C151.084 77.978 152.109 77.5222 153.121 77.0802C154.039 76.7348 154.971 76.3618 155.956 76.3895C155.624 76.7486 155.264 77.094 154.878 77.3979C154.359 77.7846 153.96 78.2958 153.467 78.6964C152.775 79.3594 152.136 80.0639 151.47 80.7546C150.605 81.7492 149.753 82.7714 149.007 83.8765C148.049 85.3131 147.21 86.8602 146.598 88.504C145.32 87.3437 143.988 86.2248 142.897 84.8572C142.005 83.8903 141.206 82.8266 140.434 81.763C140.021 81.2104 139.688 80.5888 139.276 80.0363C138.118 78.2405 137.159 76.3204 136.374 74.3174C134.816 70.3805 133.951 66.1397 134.004 61.8851C134.004 59.5644 134.257 57.2438 134.816 54.9921C133.338 55.4618 132.1 56.5254 131.129 57.7687C130.995 57.9206 130.836 58.0311 130.663 58.1416C130.716 57.5891 130.862 57.0504 131.009 56.5116C132.3 51.8564 134.51 47.4913 137.465 43.7478C139.076 41.6481 140.94 39.728 142.977 38.0704C143.789 37.3797 144.641 36.7305 145.533 36.1641C145.2 36.0398 144.867 35.9155 144.521 35.874C143.296 35.6668 142.071 36.026 140.86 36.2332C141.14 35.8602 141.486 35.5563 141.832 35.2801C144.694 33.0146 147.876 31.2741 151.111 29.6441C153.587 28.4147 156.116 27.3234 158.712 26.3841C160.895 25.5967 163.119 24.9474 165.395 24.5883C166.859 21.9913 168.59 19.5739 170.401 17.2256C171.825 15.4851 173.196 13.6893 174.674 11.9902C175.899 10.4984 177.07 8.95124 178.175 7.36267C179 6.11944 179.812 4.8624 180.451 3.49485C180.838 2.72129 181.21 2.00298 181.49 1.24323ZM182.089 6.60292C181.516 8.20531 180.758 9.72481 180.012 11.2305C179.693 11.7554 179.386 12.308 179.067 12.8329C178.934 13.0263 178.801 13.2335 178.668 13.4269C178.415 13.8827 178.148 14.3248 177.856 14.7392C177.696 15.0016 177.549 15.2503 177.403 15.5127C176.657 16.7145 175.992 17.9716 175.406 19.27C174.967 20.1265 174.607 21.0244 174.248 21.9084C173.582 23.7042 172.996 25.5553 172.717 27.4753C174.048 25.9973 175.606 24.7402 177.283 23.718C178.015 23.3313 178.747 22.9307 179.533 22.6406C179.666 22.6129 179.666 22.4472 179.719 22.3505C180.784 19.9331 181.343 17.3223 181.796 14.7115C182.116 12.7776 182.315 10.8299 182.369 8.86836C182.355 8.10861 182.289 7.34886 182.169 6.58911C182.129 6.61674 182.102 6.61674 182.089 6.60292Z" fill="#009FE3"></path>
    <path d="M196.453 36.9377C196.52 36.8687 196.613 36.841 196.693 36.8272C197.838 36.8134 198.969 36.6891 200.114 36.7305C202.164 36.6891 204.228 36.8963 206.238 37.3245C207.556 39.1755 209.42 40.5016 211.363 41.5515C211.59 41.6758 211.856 41.7725 212.002 42.0073C211.43 42.104 210.844 42.0764 210.272 42.1178C208.661 42.1593 207.05 42.1593 205.453 41.8692C203.456 41.3028 201.659 39.9629 200.514 38.1671C199.156 37.7665 197.798 37.3798 196.453 36.9377Z" fill="#009FE3"></path>
    <path d="M233.422 49.3009C233.768 49.2457 234.154 49.1904 234.487 49.3562C235.858 49.964 237.269 50.5165 238.601 51.2348C239.186 51.5249 239.719 51.9808 239.932 52.6438C240.092 53.3759 239.959 54.1495 239.652 54.8126C238.973 56.3183 238.161 57.7549 237.323 59.1777C236.244 60.9182 235.086 62.6311 233.635 64.0677C232.424 65.4076 230.973 66.4989 229.362 67.2725C227.884 67.9908 226.273 68.3361 224.689 68.7091C223.438 68.9716 222.16 69.1097 220.895 69.2617C215.943 69.7866 210.977 70.049 206.025 70.5049C203.722 70.6983 201.432 71.1403 199.222 71.831C196.6 72.646 194.07 73.8202 191.86 75.5192C191.035 76.1132 190.369 76.9006 189.651 77.6327C187.88 79.6219 186.815 82.3846 187.174 85.1059C187.547 87.9377 189.078 90.4518 190.889 92.5377C191.621 93.2836 192.313 94.071 193.098 94.7479C193.724 95.3833 194.443 95.9082 195.109 96.4884C195.841 97.0271 196.56 97.5935 197.305 98.1184C198.81 99.2235 200.434 100.163 202.045 101.088C202.55 101.42 203.136 101.599 203.615 101.986C203.549 101.986 203.389 102 203.322 102C199.435 101.765 195.521 101.738 191.674 101.116C187.64 100.508 183.62 99.4445 179.972 97.5106C178.215 96.5436 176.524 95.4109 175.153 93.9052C173.715 92.4824 172.624 90.6728 172.065 88.6837C171.599 86.9569 171.572 85.1059 171.958 83.3654C172.331 81.6663 173.076 80.0777 174.048 78.6826C174.847 77.4808 175.859 76.4586 176.884 75.4778C178.641 73.9307 180.585 72.6046 182.701 71.6652C180.065 71.7205 177.509 72.5493 175.033 73.4196C174.314 73.6544 173.636 74.0136 172.89 74.1655C173.13 73.7235 173.516 73.3919 173.862 73.0328C174.141 72.7427 174.461 72.4941 174.767 72.2454C177.669 69.8556 181.064 68.1842 184.565 66.9824C190.023 65.1314 195.788 64.3993 201.512 64.3578C202.284 64.2749 203.056 64.3992 203.815 64.3716C209.14 64.4821 214.452 65.0485 219.777 65.2833C220.709 65.2557 221.627 65.3938 222.546 65.2971C223.797 65.2833 225.049 65.1866 226.247 64.8551C227.764 64.4683 229.242 63.7776 230.44 62.7002C231.053 62.0647 231.705 61.4569 232.224 60.7248C233.236 59.4816 233.955 57.9759 234.301 56.3735C234.527 55.3789 234.168 54.3705 233.742 53.4865C233.316 52.6576 232.783 51.8979 232.197 51.1796C231.798 50.6408 231.292 50.2126 230.866 49.6877C231.718 49.4943 232.57 49.4391 233.422 49.3009Z" fill="#009FE3"></path>
    <path d="M135.042 4.91764C137.878 4.39272 140.94 4.59993 143.549 5.95366C145.839 7.15545 147.596 9.33801 148.395 11.8521C146.491 12.4875 144.587 13.1091 142.697 13.7446C142.364 12.6809 141.752 11.6863 140.86 11.0509C139.209 9.84911 136.999 9.75242 135.149 10.4845C132.007 11.7001 130.063 15.3746 130.569 18.7865C130.769 20.085 131.435 21.3006 132.433 22.1156C133.684 23.1655 135.375 23.5523 136.959 23.3451C138.623 23.0826 140.194 22.1295 141.206 20.7205C142.75 21.7427 144.281 22.7787 145.812 23.8009C144.534 25.5967 142.777 27.0057 140.78 27.8069C137.998 28.9534 134.843 29.0501 131.967 28.2213C129.504 27.503 127.215 25.9558 125.843 23.7042C124.832 22.0604 124.326 20.1127 124.366 18.1649C124.312 15.043 125.338 11.8935 127.281 9.51759C129.225 7.08638 132.06 5.484 135.042 4.91764Z" fill="#009FE3"></path>
    <path d="M34.3596 10.2635C34.7324 8.48156 35.1318 6.69961 35.5311 4.93146C41.7481 4.93146 47.9784 4.93146 54.1953 4.93146C53.8226 6.71342 53.4365 8.48156 53.0637 10.2635C50.9337 10.2773 48.8037 10.2635 46.6737 10.2635C45.3824 16.3277 44.1044 22.3919 42.8131 28.4561H36.889C38.1803 22.3919 39.4583 16.3277 40.7496 10.2497C38.6196 10.2635 36.4896 10.2635 34.3596 10.2635Z" fill="#009FE3"></path>
    <path d="M56.8979 4.93148C60.0529 4.93148 63.1947 4.93148 66.3498 4.93148C67.6278 4.93148 68.9457 4.86241 70.1838 5.29063C71.8079 5.80173 73.2057 7.00353 73.9512 8.5921C74.8299 10.3602 74.8032 12.4875 74.2441 14.3524C73.645 16.3554 72.3271 18.1235 70.5698 19.1734C69.0256 20.0989 67.2284 20.5133 65.4578 20.5685C63.4609 20.5685 61.4641 20.5685 59.4672 20.5685C58.8947 23.2069 58.3622 25.8453 57.7765 28.4838C55.8062 28.4838 53.836 28.4838 51.8657 28.4838C53.5564 20.6238 55.2205 12.7776 56.8979 4.93148ZM60.5854 15.2641C62.0631 15.2641 63.5275 15.2641 65.0052 15.2641C65.9238 15.2779 66.8823 15.0431 67.6011 14.4215C68.5197 13.6617 68.8925 12.1146 68.1336 11.1062C67.6677 10.5122 66.8956 10.2774 66.19 10.2774C64.6857 10.2774 63.1814 10.2774 61.6771 10.2774C61.3176 11.935 60.9582 13.5926 60.5854 15.2641Z" fill="#009FE3"></path>
    <path d="M70.7561 28.4699C75.2824 20.6376 79.8219 12.7914 84.3615 4.95911C86.8376 4.97292 89.3138 4.95911 91.7766 4.97292C92.9614 12.8053 94.1729 20.6376 95.3577 28.4699C93.2143 28.4699 91.071 28.4699 88.941 28.4699C88.7946 27.351 88.6615 26.2183 88.5283 25.0856C85.5463 25.0994 82.551 25.058 79.5557 25.1132C78.9832 26.2459 78.3709 27.351 77.7718 28.4699C75.4421 28.4699 73.0991 28.4699 70.7561 28.4699ZM82.338 19.795C84.255 19.7812 86.172 19.8088 88.089 19.7812C87.7429 16.8665 87.4234 13.9656 87.064 11.0509C85.4798 13.9518 83.9089 16.8803 82.338 19.795Z" fill="#009FE3"></path>
    <path d="M102.68 4.97292C104.65 4.95911 106.633 4.97292 108.604 4.95911C107.978 7.90141 107.352 10.8437 106.727 13.786C109.868 13.786 112.997 13.786 116.139 13.786C116.764 10.8437 117.403 7.90141 118.016 4.95911H123.94C122.276 12.7914 120.598 20.6238 118.921 28.4561H112.997C113.662 25.3481 114.341 22.24 115.007 19.1181C111.865 19.1181 108.723 19.1181 105.595 19.1181C104.929 22.2262 104.25 25.3342 103.598 28.4423C101.628 28.4423 99.6443 28.4423 97.6741 28.4423C99.3248 20.6376 101.016 12.8053 102.68 4.97292Z" fill="#009FE3"></path>
    <path d="M10.5968 38.5815C16.2679 38.5539 21.9524 38.5677 27.6235 38.5677C25.9728 46.4139 24.2954 54.26 22.6313 62.1062C20.6611 62.1062 18.6775 62.1062 16.7072 62.1062C17.9852 56.042 19.2899 49.9778 20.5546 43.8998C18.6376 43.9136 16.7205 43.8998 14.8035 43.8998C13.8184 46.8007 12.9265 49.7291 11.8881 52.6024C10.69 55.7105 9.03921 58.86 6.25689 60.7386C4.41976 61.9957 2.18326 62.4377 0 62.4101C0.359439 60.6143 0.75881 58.8323 1.11825 57.0504C2.2365 57.0642 3.32813 56.5669 4.06032 55.6966C5.28508 54.26 5.97733 52.4366 6.60302 50.6547C7.94758 46.6211 9.29215 42.6013 10.5968 38.5815Z" fill="#009FE3"></path>
    <path d="M32.1763 38.6092C34.1465 38.6092 36.1301 38.6092 38.1004 38.6092C37.1685 43.0157 36.2233 47.4361 35.2914 51.8427C39.3118 47.4637 43.2656 43.0157 47.2727 38.6092C49.3228 38.6092 51.3597 38.6092 53.4098 38.6092C51.7457 46.4415 50.055 54.2739 48.391 62.1062C46.4074 62.12 44.4105 62.1062 42.4269 62.1062C43.4121 57.4648 44.4238 52.8234 45.409 48.182C41.2288 52.8234 37.062 57.4786 32.8819 62.12C30.9782 62.12 29.0612 62.12 27.1575 62.12C28.8349 54.2739 30.4989 46.4415 32.1763 38.6092Z" fill="#009FE3"></path>
    <path d="M57.8165 50.9309C59.1877 46.8145 60.5456 42.6842 61.9035 38.5539C67.5746 38.5539 73.2458 38.5539 78.9169 38.5539C77.6389 44.6319 76.3476 50.7099 75.0563 56.7879C75.7219 56.7879 76.4009 56.7879 77.0665 56.7879C76.3875 59.9927 75.6953 63.1974 75.0297 66.416C73.0461 66.4437 71.0492 66.4298 69.0656 66.4298C69.3718 64.9932 69.678 63.5704 69.9842 62.1338C65.9638 62.1338 61.9434 62.1338 57.923 62.1338C57.7233 62.1614 57.4837 62.0785 57.2974 62.1891C56.9645 63.598 56.7116 65.0347 56.3655 66.4437C54.4085 66.4298 52.4516 66.4437 50.4946 66.4298C51.1336 63.3356 51.7993 60.2551 52.4383 57.1609C53.5432 56.9675 54.6481 56.5393 55.4203 55.6552C56.5785 54.3291 57.2175 52.6024 57.8165 50.9309ZM66.0969 43.8998C65.3514 46.1928 64.5926 48.4859 63.8338 50.779C63.1416 53.0859 61.8902 55.2408 60.093 56.8017C63.0883 56.8017 66.0969 56.8155 69.0923 56.8017C69.9975 52.5057 70.9294 48.2096 71.848 43.9136C69.9443 43.8998 68.014 43.8998 66.0969 43.8998Z" fill="#009FE3"></path>
    <path d="M84.1221 38.5677C89.7001 38.5677 95.278 38.5677 100.856 38.5677C100.483 40.3496 100.084 42.1316 99.6845 43.8998C96.0901 43.9136 92.4957 43.8998 88.9013 43.8998C88.6351 45.1292 88.3821 46.3586 88.1292 47.588C91.657 47.6018 95.1848 47.588 98.7127 47.6018C98.3532 49.3838 97.9539 51.1519 97.5811 52.9339C94.0533 52.9339 90.5254 52.9339 86.9976 52.9339C86.7181 54.2324 86.4385 55.517 86.1589 56.8155C89.7666 56.8155 93.3743 56.8155 96.982 56.8155C96.6093 58.5975 96.2365 60.3794 95.8372 62.1476C90.2592 62.1476 84.6812 62.1476 79.1033 62.1476C80.754 54.2738 82.4314 46.4277 84.1221 38.5677Z" fill="#009FE3"></path>
    <path d="M105.009 38.5677C108.697 38.5677 112.385 38.5539 116.085 38.5677C118.202 38.5539 120.359 39.5347 121.57 41.3581C122.702 42.9743 122.968 45.1154 122.582 47.0493C122.183 49.1352 121.051 51.0691 119.387 52.3123C118.042 53.3345 116.405 53.8871 114.754 54.0943C113.769 54.2324 112.771 54.1633 111.786 54.1771H107.579C107.006 56.8155 106.474 59.454 105.901 62.0924H99.9773C101.655 54.26 103.332 46.4139 105.009 38.5677ZM108.697 48.9003C110.228 48.9003 111.746 48.9003 113.277 48.9003C114.448 48.9003 115.726 48.403 116.325 47.3118C116.751 46.5382 116.804 45.4607 116.245 44.7424C115.779 44.1484 115.007 43.9274 114.302 43.9136C112.797 43.9136 111.306 43.9136 109.802 43.9136C109.416 45.5574 109.07 47.2289 108.697 48.9003Z" fill="#009FE3"></path>
    <path d="M43.6385 72.4526C46.4475 71.9829 49.4694 72.2039 52.0254 73.5991C54.262 74.8009 55.9793 76.9696 56.7647 79.4423C54.861 80.0777 52.9706 80.6993 51.067 81.3348C50.7341 80.2711 50.1218 79.2903 49.2298 78.6411C47.4859 77.3702 45.1163 77.3288 43.1992 78.1991C40.2305 79.5252 38.4467 83.0753 38.9259 86.3629C39.1256 87.6614 39.7912 88.877 40.7897 89.692C42.0544 90.7418 43.7451 91.1286 45.3293 90.9214C47.0066 90.659 48.5642 89.7058 49.576 88.2968C51.1069 89.319 52.6511 90.3551 54.1821 91.3773C52.9174 93.1731 51.1468 94.582 49.1499 95.3832C46.3676 96.5436 43.2126 96.6265 40.337 95.7976C37.8875 95.0793 35.5845 93.5322 34.2133 91.2806C33.2015 89.6368 32.6957 87.689 32.7356 85.7551C32.6823 82.6332 33.7074 79.4837 35.651 77.094C37.6479 74.6075 40.5767 72.9913 43.6385 72.4526Z" fill="#009FE3"></path>
    <path d="M53.8892 96.0463C58.4154 88.2139 62.955 80.3816 67.4946 72.5493C69.9707 72.5631 72.4468 72.5493 74.923 72.5493C76.1078 80.3816 77.3192 88.2139 78.504 96.0463H72.0874C71.941 94.9274 71.8078 93.7946 71.6747 92.6619C68.6927 92.6757 65.6974 92.6481 62.7154 92.6757C62.1296 93.8085 61.5173 94.9274 60.9182 96.0463C58.5619 96.0463 56.2189 96.0463 53.8892 96.0463ZM65.4578 87.3713C67.3748 87.3713 69.2918 87.3713 71.1955 87.3713C70.8626 84.4566 70.5298 81.5419 70.1837 78.6273C68.6128 81.5281 67.0286 84.4566 65.4578 87.3713Z" fill="#009FE3"></path>
    <path d="M85.3067 72.5493C87.5299 72.5493 89.7531 72.5493 91.9896 72.5493C93.0413 74.8699 94.0797 77.2183 95.118 79.5528C97.0217 77.2183 98.9254 74.8976 100.816 72.5631C103.265 72.5631 105.715 72.5631 108.151 72.5631C104.796 76.5 101.441 80.4368 98.0867 84.3599C99.9239 88.2692 101.801 92.1646 103.651 96.0601C101.428 96.0601 99.1917 96.0601 96.9685 96.0601C95.8103 93.5598 94.6388 91.0734 93.4806 88.5731C91.3373 91.0457 89.2605 93.6013 87.1039 96.0463C84.6677 96.0739 82.2182 96.0463 79.782 96.0601C83.3764 91.9298 86.9708 87.7857 90.5518 83.6416C88.7946 79.9396 87.0639 76.2375 85.3067 72.5493Z" fill="#009FE3"></path>
    <path d="M104.796 96.0463C109.323 88.214 113.862 80.3678 118.402 72.5355C120.878 72.5493 123.341 72.5355 125.817 72.5493C127.002 80.3816 128.213 88.214 129.398 96.0463C127.255 96.0463 125.125 96.0463 122.981 96.0463C122.822 94.9274 122.702 93.7947 122.569 92.6619C119.76 92.6619 116.951 92.6619 114.142 92.6619C113.942 92.7034 113.636 92.5652 113.543 92.8139C112.957 93.8914 112.398 94.9688 111.812 96.0463C109.482 96.0463 107.139 96.0463 104.796 96.0463ZM116.378 87.3713C118.295 87.3575 120.212 87.3713 122.129 87.3713C121.797 84.4566 121.464 81.5558 121.118 78.6411C119.52 81.542 117.949 84.4566 116.378 87.3713Z" fill="#009FE3"></path>
</svg>