<svg width="40" height="40" viewBox="0 0 40 40" fill="none" xmlns="http://www.w3.org/2000/svg">
<path d="M20 0C8.95573 0 0 8.95573 0 20C0 29.3724 6.45312 37.2135 15.1536 39.3828C15.0599 39.1146 15 38.7995 15 38.4115V34.9922C14.1875 34.9922 12.8281 34.9922 12.487 34.9922C11.1172 34.9922 9.90104 34.4062 9.3125 33.3125C8.65625 32.0964 8.54427 30.2396 6.91927 29.1016C6.4375 28.724 6.80469 28.2917 7.35937 28.349C8.38542 28.6406 9.23438 29.3438 10.0339 30.3854C10.8307 31.4323 11.2057 31.6693 12.6953 31.6693C13.4167 31.6693 14.4974 31.6276 15.513 31.4661C16.0599 30.0781 17.0052 28.7995 18.1589 28.1979C11.5 27.5104 8.32292 24.1979 8.32292 19.7005C8.32292 17.763 9.14583 15.8906 10.5495 14.3125C10.0885 12.7448 9.51042 9.54948 10.724 8.33333C13.7214 8.33333 15.5339 10.276 15.9688 10.8021C17.4609 10.2891 19.1016 10 20.8255 10C22.5521 10 24.1979 10.2891 25.6953 10.8047C26.125 10.2839 27.9375 8.33333 30.9427 8.33333C32.1615 9.55208 31.5755 12.7604 31.112 14.3229C32.5052 15.8984 33.3255 17.7656 33.3255 19.7005C33.3255 24.1953 30.151 27.5078 23.5026 28.1953C25.3307 29.151 26.6667 31.8333 26.6667 33.8542V38.4115C26.6667 38.5859 26.6276 38.7109 26.6094 38.8594C34.401 36.1276 40 28.7266 40 20C40 8.95573 31.0443 0 20 0Z" fill="#AD2C6A"/>
</svg>
