<svg width="40" height="40" viewBox="0 0 40 40" fill="none" xmlns="http://www.w3.org/2000/svg">
<path d="M37.5602 35.2002H2.43974C1.11975 35.2002 0.050415 34.1309 0.050415 32.8109V7.18913C0.050415 5.86914 1.11975 4.7998 2.43974 4.7998H37.5602C38.8802 4.7998 39.9495 5.86914 39.9495 7.18913V32.8092C39.9495 34.1309 38.8802 35.2002 37.5602 35.2002Z" fill="url(#paint0_linear)"/>
<path d="M37.5602 35.2002H4.7998L39.9495 7.64973V32.8109C39.9495 34.1309 38.8802 35.2002 37.5602 35.2002Z" fill="url(#paint1_linear)"/>
<path d="M2.43974 4.7998H4.79976V35.2002H2.43974C1.11975 35.2002 0.050415 34.1309 0.050415 32.8109V7.18913C0.050415 5.86914 1.11975 4.7998 2.43974 4.7998ZM37.5602 4.7998H35.2001V35.2002H37.5602C38.8802 35.2002 39.9495 34.1309 39.9495 32.8109V7.18913C39.9495 5.86914 38.8802 4.7998 37.5602 4.7998Z" fill="#AD2C6A"/>
<path d="M37.5602 35.2002H26.1897L0.050415 8.11035V7.19076C0.050415 5.86914 1.11975 4.7998 2.43974 4.7998H37.5602C38.8802 4.7998 39.9495 5.86914 39.9495 7.18913V32.8092C39.9495 34.1309 38.8802 35.2002 37.5602 35.2002Z" fill="url(#paint2_linear)"/>
<path d="M38.8313 9.64518L20 23.2861L1.16858 9.64518C0.465454 9.13737 0.050415 8.32194 0.050415 7.4528V7.18913C0.050415 5.86914 1.11975 4.7998 2.43974 4.7998H37.5602C38.8802 4.7998 39.9495 5.86914 39.9495 7.18913V7.4528C39.9495 8.32194 39.5345 9.13737 38.8313 9.64518Z" fill="#F5F5F5"/>
<path d="M37.5602 4.7998H37.2753L20 17.3128L2.72457 4.7998H2.43974C1.11975 4.7998 0.050415 5.86914 0.050415 7.18913V7.4528C0.050415 8.32194 0.465454 9.13737 1.16858 9.64518L20 23.2861L38.8313 9.64518C39.5345 9.13737 39.9495 8.32194 39.9495 7.4528V7.18913C39.9495 5.86914 38.8802 4.7998 37.5602 4.7998Z" fill="#AD2C6A"/>
<defs>
<linearGradient id="paint0_linear" x1="11.5184" y1="10.1428" x2="20.1054" y2="20.1225" gradientUnits="userSpaceOnUse">
<stop stop-color="#E3E3E3"/>
<stop offset="1" stop-color="#E2E2E2"/>
</linearGradient>
<linearGradient id="paint1_linear" x1="22.3303" y1="21.3689" x2="31.5615" y2="32.9608" gradientUnits="userSpaceOnUse">
<stop stop-color="#F5F5F5"/>
<stop offset="0.03" stop-color="#EEEEEE"/>
<stop offset="1" stop-color="#EEEEEE"/>
</linearGradient>
<linearGradient id="paint2_linear" x1="20" y1="4.8" x2="20" y2="33.4719" gradientUnits="userSpaceOnUse">
<stop stop-opacity="0.15"/>
<stop offset="1" stop-opacity="0.03"/>
</linearGradient>
</defs>
</svg>
