<?xml version="1.0" encoding="UTF-8"?>
<svg xmlns="http://www.w3.org/2000/svg" viewBox="0 0 48 48" width="48px" height="48px">
<g id="surface42242131">
<path style=" stroke:none;fill-rule:nonzero;fill:rgb(67.843139%,17.254902%,41.568628%);fill-opacity:1;" d="M 24 0.199219 C 10.855469 0.199219 0.199219 10.855469 0.199219 24 C 0.199219 37.144531 10.855469 47.800781 24 47.800781 C 37.144531 47.800781 47.800781 37.144531 47.800781 24 C 47.800781 10.855469 37.144531 0.199219 24 0.199219 Z M 24 0.199219 "/>
<path style=" stroke:none;fill-rule:nonzero;fill:rgb(100%,100%,100%);fill-opacity:1;" d="M 35.839844 13.289062 L 31.382812 36.050781 C 31.382812 36.050781 31.191406 37.089844 29.902344 37.089844 C 29.214844 37.089844 28.863281 36.765625 28.863281 36.765625 L 19.207031 28.75 L 14.480469 26.371094 L 8.417969 24.757812 C 8.417969 24.757812 7.339844 24.445312 7.339844 23.554688 C 7.339844 22.808594 8.449219 22.457031 8.449219 22.457031 L 33.816406 12.378906 C 33.816406 12.378906 34.589844 12.097656 35.15625 12.101562 C 35.503906 12.101562 35.898438 12.25 35.898438 12.695312 C 35.898438 12.992188 35.839844 13.289062 35.839844 13.289062 Z M 35.839844 13.289062 "/>
<path style=" stroke:none;fill-rule:nonzero;fill:rgb(69.01961%,74.509805%,77.254903%);fill-opacity:1;" d="M 22.808594 31.742188 L 18.734375 35.757812 C 18.734375 35.757812 18.554688 35.894531 18.320312 35.898438 C 18.238281 35.902344 18.148438 35.886719 18.058594 35.847656 L 19.207031 28.75 Z M 22.808594 31.742188 "/>
<path style=" stroke:none;fill-rule:nonzero;fill:rgb(81.176472%,84.705883%,86.274511%);fill-opacity:1;" d="M 31.015625 17.09375 C 30.816406 16.832031 30.445312 16.785156 30.183594 16.984375 L 14.480469 26.378906 C 14.480469 26.378906 16.984375 33.390625 17.367188 34.605469 C 17.75 35.820312 18.058594 35.847656 18.058594 35.847656 L 19.207031 28.75 L 30.90625 17.925781 C 31.167969 17.726562 31.214844 17.355469 31.015625 17.09375 Z M 31.015625 17.09375 "/>
</g>
</svg>
